<?xml version="1.0" encoding="UTF-8"?>
<svg version="1.1" xmlns="http://www.w3.org/2000/svg" width="597" height="418">
<path d="M0 0 C3.74061897 0.34822579 7.31635888 1.22900535 11 2 C11 6.62 11 11.24 11 16 C15.62 16.66 20.24 17.32 25 18 C25.495 20.475 25.495 20.475 26 23 C24 26 24 26 22.171875 26.68359375 C18.44902702 27.2259511 14.75148222 27.05516886 11 27 C10.13746365 34.95141389 9.81730219 42.81685101 9.8125 50.8125 C9.80025391 51.90498047 9.78800781 52.99746094 9.77539062 54.12304688 C9.76563948 59.46342211 9.80168918 64.02121699 12 69 C14.52091985 68.62293934 15.72619559 68.29542054 17.484375 66.3984375 C20.50082604 61.57583985 21.19244778 58.77343352 21 53 C21.83664278 48.9553384 22.91542143 44.98428086 24 41 C24.3369595 39.66757845 24.6719156 38.3346346 25 37 C25.66 37 26.32 37 27 37 C26.67 36.01 26.34 35.02 26 34 C29.37591077 30.32621475 32.24724667 27.64518385 37 26 C40.79991531 26.01324012 44.43955507 26.54413968 48.0859375 27.609375 C50.20752415 28.20834749 50.20752415 28.20834749 53 27 C55.26171875 27.33984375 55.26171875 27.33984375 57.6875 27.9375 C58.49574219 28.13214844 59.30398438 28.32679688 60.13671875 28.52734375 C60.75160156 28.68332031 61.36648438 28.83929688 62 29 C61.99476318 30.13018555 61.98952637 31.26037109 61.98413086 32.42480469 C61.96601774 36.62173672 61.95454488 40.81866531 61.94506836 45.015625 C61.94004259 46.83138612 61.93322097 48.6471432 61.92456055 50.46289062 C61.91241811 53.0742289 61.90675409 55.68551362 61.90234375 58.296875 C61.89718246 59.10743347 61.89202118 59.91799194 61.88670349 60.75311279 C61.88634704 64.3420417 62.02954053 67.54740786 63 71 C66.59719852 69.91723037 66.59719852 69.91723037 69.16015625 67.33203125 C70.26719544 64.25806661 70.15361731 61.69949987 70.0625 58.4375 C69.96479469 52.21692888 70.29402289 46.17729968 71 40 C71.66 40 72.32 40 73 40 C73.0825 39.46375 73.165 38.9275 73.25 38.375 C74.27845664 35.11822063 75.99302309 32.75242547 78 30 C78.556875 29.21625 79.11375 28.4325 79.6875 27.625 C82.76738373 25.46075738 85.03560848 25.44686711 88.73828125 25.59375 C92.2564548 26.22568445 94.25838153 27.7504669 97 30 C97.59748047 29.23236328 97.59748047 29.23236328 98.20703125 28.44921875 C100 27 100 27 102.26171875 27.14453125 C103.06222656 27.36496094 103.86273438 27.58539063 104.6875 27.8125 C105.49574219 28.02519531 106.30398438 28.23789063 107.13671875 28.45703125 C107.75160156 28.63621094 108.36648438 28.81539062 109 29 C109.7903481 39.15293327 110.14727634 48.85101699 109 59 C109.66 59 110.32 59 111 59 C111.84114171 57.56705502 112.67265687 56.12845595 113.5 54.6875 C113.9640625 53.88699219 114.428125 53.08648437 114.90625 52.26171875 C116.21767886 49.9685882 116.21767886 49.9685882 116 47 C116.66 47 117.32 47 118 47 C117.67 45.68 117.34 44.36 117 43 C117.66 42.67 118.32 42.34 119 42 C118.76023437 41.40832031 118.52046875 40.81664062 118.2734375 40.20703125 C115.85025525 33.74872377 115.85025525 33.74872377 116.5625 30.1875 C118.23424077 27.64354666 119.51506353 25.79467634 122 24 C125.0625 23.8125 125.0625 23.8125 128 25 C129.46614623 27.28915025 130.14265327 29.38032945 131 32 C131.825 31.835 132.65 31.67 133.5 31.5 C137.464838 30.93359457 140.99725776 30.79986289 145 31 C147 33 147 33 147.25 36.375 C147.17162598 39.97367353 146.6330316 43.39704469 146 46.9375 C144.49302344 55.50573814 144.77372587 62.59183968 147 71 C149.97 70.505 149.97 70.505 153 70 C153.80742369 64.95360191 154.02062428 60.17741379 153.9375 55.0625 C153.89630735 45.39252539 155.53448369 37.17556457 161 29 C164.8548382 26.08745558 168.33396135 25.54359424 173.046875 25.6875 C175.97832477 26.15653196 178.3629016 27.6814508 181 29 C182.34977849 28.36729133 183.68352881 27.69937532 185 27 C190.36842105 28.36842105 190.36842105 28.36842105 192 30 C192.12308006 32.70204562 192.18610138 35.38249997 192.2109375 38.0859375 C192.23900672 39.75521813 192.26767119 41.42448884 192.296875 43.09375 C192.33816015 45.73599974 192.37503054 48.37806437 192.40136719 51.02050781 C192.42893656 53.56354459 192.47480945 56.10572802 192.5234375 58.6484375 C192.5283168 59.83450089 192.5283168 59.83450089 192.53329468 61.04452515 C192.58330778 65.32871507 192.58330778 65.32871507 194.52978516 69.02197266 C195.01495605 69.34472168 195.50012695 69.6674707 196 70 C196.66 69.67 197.32 69.34 198 69 C199.485 68.505 199.485 68.505 201 68 C202.79506837 62.41534286 203.4873357 56.82818365 204 51 C203.34 50.67 202.68 50.34 202 50 C202.66 50 203.32 50 204 50 C203.82726562 49.18144531 203.65453125 48.36289063 203.4765625 47.51953125 C202.92809276 43.46894734 203.07939976 39.74830832 203.375 35.6875 C203.44074219 34.59598633 203.44074219 34.59598633 203.5078125 33.48242188 C203.86675044 28.13324956 203.86675044 28.13324956 205 27 C207.03125 27.0859375 207.03125 27.0859375 209.5 27.375 C210.3146875 27.46523437 211.129375 27.55546875 211.96875 27.6484375 C214 28 214 28 215 29 C215.23287008 30.68183948 215.41264166 32.3712416 215.5625 34.0625 C215.68818359 35.44115234 215.68818359 35.44115234 215.81640625 36.84765625 C215.87699219 37.55792969 215.93757813 38.26820313 216 39 C216.433125 37.9171875 216.433125 37.9171875 216.875 36.8125 C217.24625 35.884375 217.6175 34.95625 218 34 C218.309375 33.113125 218.61875 32.22625 218.9375 31.3125 C220 29 220 29 223 27 C226.70738811 26.50568159 228.87520211 26.95146749 232.375 28.3125 C235.49397638 31.50573772 235.35195164 32.32477111 235.3125 36.625 C235.21388672 38.06746094 235.21388672 38.06746094 235.11328125 39.5390625 C234.79924144 42.00504042 234.79924144 42.00504042 236 44 C236 45.32 236 46.64 236 48 C237.65 42.39 239.3 36.78 241 31 C241.66 31 242.32 31 243 31 C243.33 29.68 243.66 28.36 244 27 C252.0740276 27.18977415 252.0740276 27.18977415 255.5 30.1875 C257.103937 33.19488187 257.68565946 35.62083919 258 39 C257.34 39 256.68 39 256 39 C256.165 39.86625 256.33 40.7325 256.5 41.625 C257.05486559 45.40887505 257.03283077 49.11681905 257 52.9375 C256.9560906 58.08038826 257.18819062 62.92619139 258 68 C258.99 68.33 259.98 68.66 261 69 C260.67 69.33 260.34 69.66 260 70 C260.99 70 261.98 70 263 70 C264.65 66.04 266.3 62.08 268 58 C269.65 59.65 271.3 61.3 273 63 C268.7835987 74.55024825 268.7835987 74.55024825 265 78 C261.10464694 79.16031793 257.84043653 79.37861824 254 78 C248.75716081 73.61064626 247.20437479 69.53803457 246 63 C245.67 62.01 245.34 61.02 245 60 C244.92970879 57.42734182 244.90629168 54.88358569 244.9375 52.3125 C244.94201172 51.61060547 244.94652344 50.90871094 244.95117188 50.18554688 C244.96293073 48.45699462 244.98086546 46.72848635 245 45 C242.45019692 51.11098057 241.22147231 56.82445861 240.375 63.375 C240.13575798 65.15404442 239.89370965 66.93271441 239.6484375 68.7109375 C239.54708496 69.48743652 239.44573242 70.26393555 239.34130859 71.06396484 C239 73 239 73 238 75 C235.67843403 75.40729228 233.3431213 75.74438677 231 76 C226.35202086 69.40286832 226.35202086 69.40286832 226 66 C226.33 65.01 226.66 64.02 227 63 C226.34 62.67 225.68 62.34 225 62 C225.33 61.01 225.66 60.02 226 59 C225.34 58.67 224.68 58.34 224 58 C224.33 57.34 224.66 56.68 225 56 C224.91188555 53.78861145 224.7570216 51.57957815 224.5625 49.375 C224.46066406 48.18648437 224.35882813 46.99796875 224.25390625 45.7734375 C224.12822266 44.40058594 224.12822266 44.40058594 224 43 C223.34 44.32 222.68 45.64 222 47 C222.66 47.33 223.32 47.66 224 48 C224 48.66 224 49.32 224 50 C222.35 50.33 220.7 50.66 219 51 C219.0309375 52.8253125 219.0309375 52.8253125 219.0625 54.6875 C219.06666901 57.07217254 218.9807602 59.09379403 218.5 61.4375 C218.02248411 63.88476893 217.99974507 65.89408849 218.0625 68.375 C218.12672984 72.63557948 217.3692226 75.97790862 216 80 C210.62007164 79.66009167 206.46726453 79.31442207 202 76 C201.484375 76.495 200.96875 76.99 200.4375 77.5 C197.15183066 79.52195036 194.79557779 79.27604202 191 79 C187.93738507 77.97912836 186.94220597 77.47189851 185 75 C184.3125 72.3125 184.3125 72.3125 184 70 C183.34 70 182.68 70 182 70 C181.814375 70.7425 181.62875 71.485 181.4375 72.25 C179.48576224 75.9837592 176.81170516 77.51232478 173 79 C166.17343173 80.58671587 166.17343173 80.58671587 163 79 C163 78.34 163 77.68 163 77 C162.38125 76.896875 161.7625 76.79375 161.125 76.6875 C159 76 159 76 157 73 C155.7934375 74.2065625 155.7934375 74.2065625 154.5625 75.4375 C150.76629571 79.23370429 150.76629571 79.23370429 146.3125 79.5 C143.3028042 79.46985998 141.57623483 79.39389683 139.07421875 77.68359375 C133.08452829 71.03994204 132.67409151 63.44000839 132.75 54.875 C132.74226562 53.99457031 132.73453125 53.11414063 132.7265625 52.20703125 C132.74014403 47.70475272 132.86468644 44.08421086 135 40 C132.36 40 129.72 40 127 40 C126.855625 40.886875 126.71125 41.77375 126.5625 42.6875 C126.08980022 45.47117646 125.56929815 48.23483757 125 51 C124.34 51 123.68 51 123 51 C122.79375 51.78375 122.5875 52.5675 122.375 53.375 C119.83334512 60.0757265 115.90484381 66.7448102 111 72 C110.34 72 109.68 72 109 72 C109.0721875 72.67804688 109.144375 73.35609375 109.21875 74.0546875 C109.85113709 80.39612473 110.12438222 86.62886647 110 93 C109.34 93 108.68 93 108 93 C108.061875 93.99 108.12375 94.98 108.1875 96 C108.16384631 101.84246047 106.37475613 106.41374293 102.5625 110.8125 C101.716875 111.534375 100.87125 112.25625 100 113 C99.4225 113.598125 98.845 114.19625 98.25 114.8125 C93.87015155 117.12408668 88.83226247 116.52932027 84.1875 115.1875 C78.3372093 112.01162791 78.3372093 112.01162791 77 108 C76.34489063 100.68041264 77.36216459 96.07665473 81.375 89.875 C83.36483212 87.57903986 85.62438978 85.90048818 88 84 C90.10478028 81.89521972 92.17539283 79.76268591 94.23046875 77.609375 C96 76 96 76 98 76 C97.67 75.34 97.34 74.68 97 74 C96.401875 74.61875 95.80375 75.2375 95.1875 75.875 C90.72898181 78.84734546 86.24283948 79.30217898 81 80 C81 79.34 81 78.68 81 78 C80.01 78 79.02 78 78 78 C76.0750353 76.17806158 74.62464469 74.10764717 73 72 C72.773125 72.598125 72.54625 73.19625 72.3125 73.8125 C70.57570471 76.70715882 69.0816964 77.63035715 66 79 C61.6441302 79.55438343 59.56299114 79.30805175 55.6875 77.1875 C53 75 53 75 51 72 C50.2575 72.86625 50.2575 72.86625 49.5 73.75 C45.57881844 77.2790634 41.31433394 79.80713884 36 80.25 C35.34 80.1675 34.68 80.085 34 80 C34 79.34 34 78.68 34 78 C33.401875 77.87625 32.80375 77.7525 32.1875 77.625 C30 77 30 77 27 75 C25.93753473 73.03247172 24.92862192 71.03412421 24 69 C23.319375 69.99 23.319375 69.99 22.625 71 C22.08875 71.66 21.5525 72.32 21 73 C20.34 73 19.68 73 19 73 C18.814375 73.598125 18.62875 74.19625 18.4375 74.8125 C16.25855963 78.12827882 13.70432733 78.80708103 10 80 C7.3125 80 7.3125 80 5 79 C1 74.78378378 1 74.78378378 1 72 C0.34 71.67 -0.32 71.34 -1 71 C-1.73075648 68.6859378 -2.40138258 66.35171131 -3 64 C-3.45375 64.825 -3.9075 65.65 -4.375 66.5 C-4.91125 67.325 -5.4475 68.15 -6 69 C-6.66 69 -7.32 69 -8 69 C-8.20625 69.556875 -8.4125 70.11375 -8.625 70.6875 C-11.05528993 74.7748058 -14.51385646 77.50461882 -19 79 C-26.9922882 79.61247435 -33.46411319 79.97972328 -40 75 C-39.6875 71.625 -39.6875 71.625 -39 68 C-36 66 -36 66 -34.0625 66.25 C-32 67 -32 67 -30.0625 68.125 C-27.37363338 69.26573129 -25.76141748 68.76706041 -23 68 C-22.03229115 63.92310145 -22.03229115 63.92310145 -22.6875 59.875 C-24.01749922 57.85940284 -24.01749922 57.85940284 -26.125 55.875 C-26.74375 55.25625 -27.3625 54.6375 -28 54 C-28 53.34 -28 52.68 -28 52 C-29.32 51.67 -30.64 51.34 -32 51 C-32.350625 51.763125 -32.70125 52.52625 -33.0625 53.3125 C-35.6494804 58.45019472 -38.7936584 63.23225358 -42 68 C-42.63292969 68.95648438 -43.26585937 69.91296875 -43.91796875 70.8984375 C-48.66453229 77.51141425 -48.66453229 77.51141425 -52.40234375 78.87890625 C-56.04435199 79.34522497 -58.49931312 79.16689563 -62 78 C-63.9361868 73.60735852 -64.36245282 69.44738314 -64.625 64.6875 C-64.66294678 64.006875 -64.70089355 63.32625 -64.73999023 62.625 C-65.13518396 54.75338629 -65.08775733 46.87865848 -65 39 C-73.01318911 49.40888482 -76.17080485 61.28009738 -78.32421875 74.015625 C-79 77 -79 77 -81 79 C-83.9375 79.8125 -83.9375 79.8125 -87 80 C-88.875 78.8125 -88.875 78.8125 -90 77 C-90 75.68 -90 74.36 -90 73 C-90.66 72.67 -91.32 72.34 -92 72 C-92.04951793 66.39495119 -92.08577555 60.79003035 -92.10986328 55.18481445 C-92.11990737 53.2788674 -92.13354516 51.37293571 -92.15087891 49.46704102 C-92.17519718 46.72408248 -92.18649912 43.98132809 -92.1953125 41.23828125 C-92.20563507 40.38913651 -92.21595764 39.53999176 -92.22659302 38.66511536 C-92.22741351 34.31744045 -92.03452583 30.9599335 -90 27 C-86.93322568 26.79090175 -84.66155438 26.69319217 -81.84375 28 C-79.06368579 31.01566287 -79.32505747 34.28109984 -79.25 38.1875 C-79.22035156 38.93708984 -79.19070312 39.68667969 -79.16015625 40.45898438 C-79.0895921 42.30541307 -79.04251524 44.15271261 -79 46 C-78.73445312 45.38511719 -78.46890625 44.77023438 -78.1953125 44.13671875 C-77.84210938 43.32847656 -77.48890625 42.52023438 -77.125 41.6875 C-76.77695313 40.88699219 -76.42890625 40.08648437 -76.0703125 39.26171875 C-75 37 -75 37 -73 34 C-72.61500109 32.34450469 -72.27206865 30.6777567 -72 29 C-65.89639147 27.38067529 -59.79954971 25.81960177 -54 29 C-54 29.66 -54 30.32 -54 31 C-53.34 31 -52.68 31 -52 31 C-51.29621822 40.64722406 -50.77281779 49.95536007 -51.84375 59.59375 C-52.20387802 62.01243674 -52.20387802 62.01243674 -51 64 C-49.07690578 63.96044102 -49.07690578 63.96044102 -47 63 C-45.9349985 61.03384339 -44.93166826 59.03273074 -44 57 C-43.34 56.67 -42.68 56.34 -42 56 C-41.29289322 54.35008418 -40.63437344 52.6792238 -40 51 C-39.4225 49.989375 -38.845 48.97875 -38.25 47.9375 C-37.63125 46.4834375 -37.63125 46.4834375 -37 45 C-37.66226625 43.66447552 -38.32937687 42.33134776 -39 41 C-39.01171875 38.74609375 -39.01171875 38.74609375 -38.6875 36.4375 C-38.58824219 35.67308594 -38.48898438 34.90867188 -38.38671875 34.12109375 C-38 32 -38 32 -37 29 C-32.6188635 26.6805748 -29.03995949 25.19818826 -24 26 C-22.0625 27.6875 -22.0625 27.6875 -21 30 C-21.25000753 34.50013556 -23.37656831 38.83554479 -25 43 C-24.49210937 43.35191406 -23.98421875 43.70382813 -23.4609375 44.06640625 C-17.32143397 48.46983294 -12.23556903 53.07527749 -9 60 C-5.16665067 56.86362328 -4.19575525 52.8271489 -3.68115234 48.02392578 C-3.634021 46.50001221 -3.634021 46.50001221 -3.5859375 44.9453125 C-3.54726562 43.83671875 -3.50859375 42.728125 -3.46875 41.5859375 C-3.4378125 40.44382813 -3.406875 39.30171875 -3.375 38.125 C-3.33632812 36.9596875 -3.29765625 35.794375 -3.2578125 34.59375 C-3.16389994 31.72941703 -3.0808765 28.86473069 -3 26 C-6.96 25.67 -10.92 25.34 -15 25 C-15.36693548 18.51747312 -15.36693548 18.51747312 -13.78125 16.28125 C-11.47911524 14.6253285 -10.11781917 14.6905296 -7.3125 14.8125 C-6.10013672 14.85310547 -6.10013672 14.85310547 -4.86328125 14.89453125 C-4.24839844 14.92933594 -3.63351563 14.96414062 -3 15 C-2.92652344 13.62714844 -2.92652344 13.62714844 -2.8515625 12.2265625 C-2.77679688 11.03804687 -2.70203125 9.84953125 -2.625 8.625 C-2.55539063 7.44164062 -2.48578125 6.25828125 -2.4140625 5.0390625 C-2 2 -2 2 0 0 Z M38 37 C34.49459185 41.28438774 34.26430955 45.67376205 34 51 C33.94714844 51.99128906 33.89429688 52.98257813 33.83984375 54.00390625 C33.66243311 60.16699772 33.98920752 64.58057353 37 70 C38.04342781 71.23836166 38.04342781 71.23836166 40.3125 71.375 C43.2027399 71.25198656 43.2027399 71.25198656 45.1875 68.75 C48.39663226 63.88097175 49.38001292 60.21166388 49.6875 54.375 C49.73455078 53.694375 49.78160156 53.01375 49.83007812 52.3125 C50.12912836 48.53569481 50.12912836 48.53569481 49 45 C49.0825 44.05125 49.165 43.1025 49.25 42.125 C49.32482061 38.81145133 49.32482061 38.81145133 46.625 36.625 C42.99806331 34.37975348 41.51065532 34.76594662 38 37 Z M87.33203125 36.14453125 C83.1425811 40.7432336 82.28665294 44.36935681 82.10546875 50.546875 C82 53 82 53 81 56 C81.55888682 61.4957204 82.69039593 66.48690355 86 71 C88.87311572 71.05175552 88.87311572 71.05175552 92 70 C97.41777164 62.62581082 98.95721545 54.02925622 98 45 C97.00361882 41.1430406 95.86911336 37.86911336 93 35 C89.2125513 34.62280599 89.2125513 34.62280599 87.33203125 36.14453125 Z M169.875 36.6875 C165.41295979 42.19068292 165.66413153 47.70444975 165.6875 54.5 C165.67138672 55.43714844 165.65527344 56.37429687 165.63867188 57.33984375 C165.63510141 62.37419958 165.69733531 65.9197459 169 70 C170.06645115 71.29633621 170.06645115 71.29633621 172.5625 71.0625 C173.366875 71.041875 174.17125 71.02125 175 71 C175.33 70.01 175.66 69.02 176 68 C176.66 68 177.32 68 178 68 C180.62671684 61.98044058 181.30138587 56.7399581 181.3125 50.25 C181.31765625 49.51724854 181.3228125 48.78449707 181.328125 48.02954102 C181.27595984 43.94901426 180.99249817 40.59849168 179 37 C175.43525321 34.62350214 173.39303341 33.89376759 169.875 36.6875 Z M215 40 C215 41.65 215 43.3 215 45 C215.33 45 215.66 45 216 45 C216 43.35 216 41.7 216 40 C215.67 40 215.34 40 215 40 Z M96.07421875 85.90625 C88.2687078 94.22740952 88.2687078 94.22740952 84.625 104.8125 C84.89635008 107.28450846 84.89635008 107.28450846 87 110 C90.37346335 110.13956727 90.37346335 110.13956727 94 109 C99.79218012 102.12821235 99.17572576 92.4348365 99 84 C97.66683518 83.88275106 97.66683518 83.88275106 96.07421875 85.90625 Z " fill="#404040" transform="translate(229,151)"/>
<path d="M0 0 C1.9375 1.6875 1.9375 1.6875 3 4 C2.74999247 8.50013556 0.62343169 12.83554479 -1 17 C-0.49210937 17.35191406 0.01578125 17.70382813 0.5390625 18.06640625 C6.67856603 22.46983294 11.76443097 27.07527749 15 34 C15.99 33.67 16.98 33.34 18 33 C18 33.99 18 34.98 18 36 C19.32 35.34 20.64 34.68 22 34 C21.35494404 37.48330216 20.01782732 40.09432866 18 43 C17.34 43 16.68 43 16 43 C15.690625 43.8353125 15.690625 43.8353125 15.375 44.6875 C12.94471007 48.7748058 9.48614354 51.50461882 5 53 C-2.9922882 53.61247435 -9.46411319 53.97972328 -16 49 C-15.6875 45.625 -15.6875 45.625 -15 42 C-12 40 -12 40 -10.0625 40.25 C-8 41 -8 41 -6.0625 42.125 C-3.37363338 43.26573129 -1.76141748 42.76706041 1 42 C1.96770885 37.92310145 1.96770885 37.92310145 1.3125 33.875 C-0.01749922 31.85940284 -0.01749922 31.85940284 -2.125 29.875 C-2.74375 29.25625 -3.3625 28.6375 -4 28 C-4 27.34 -4 26.68 -4 26 C-5.32 25.67 -6.64 25.34 -8 25 C-8.350625 25.763125 -8.70125 26.52625 -9.0625 27.3125 C-11.6494804 32.45019472 -14.7936584 37.23225358 -18 42 C-18.63292969 42.95648438 -19.26585937 43.91296875 -19.91796875 44.8984375 C-24.66453229 51.51141425 -24.66453229 51.51141425 -28.40234375 52.87890625 C-32.04435199 53.34522497 -34.49931312 53.16689563 -38 52 C-39.9361868 47.60735852 -40.36245282 43.44738314 -40.625 38.6875 C-40.66294678 38.006875 -40.70089355 37.32625 -40.73999023 36.625 C-41.13518396 28.75338629 -41.08775733 20.87865848 -41 13 C-49.01318911 23.40888482 -52.17080485 35.28009738 -54.32421875 48.015625 C-55 51 -55 51 -57 53 C-59.9375 53.8125 -59.9375 53.8125 -63 54 C-64.875 52.8125 -64.875 52.8125 -66 51 C-66 49.68 -66 48.36 -66 47 C-66.66 46.67 -67.32 46.34 -68 46 C-68.04951793 40.39495119 -68.08577555 34.79003035 -68.10986328 29.18481445 C-68.11990737 27.2788674 -68.13354516 25.37293571 -68.15087891 23.46704102 C-68.17519718 20.72408248 -68.18649912 17.98132809 -68.1953125 15.23828125 C-68.20563507 14.38913651 -68.21595764 13.53999176 -68.22659302 12.66511536 C-68.22741351 8.31744045 -68.03452583 4.9599335 -66 1 C-62.93322568 0.79090175 -60.66155438 0.69319217 -57.84375 2 C-55.06368579 5.01566287 -55.32505747 8.28109984 -55.25 12.1875 C-55.22035156 12.93708984 -55.19070312 13.68667969 -55.16015625 14.45898438 C-55.0895921 16.30541307 -55.04251524 18.15271261 -55 20 C-54.73445312 19.38511719 -54.46890625 18.77023438 -54.1953125 18.13671875 C-53.84210938 17.32847656 -53.48890625 16.52023438 -53.125 15.6875 C-52.60292969 14.48673828 -52.60292969 14.48673828 -52.0703125 13.26171875 C-51 11 -51 11 -49 8 C-48.61500109 6.34450469 -48.27206865 4.6777567 -48 3 C-41.89639147 1.38067529 -35.79954971 -0.18039823 -30 3 C-30 3.66 -30 4.32 -30 5 C-29.34 5 -28.68 5 -28 5 C-27.29621822 14.64722406 -26.77281779 23.95536007 -27.84375 33.59375 C-28.20387802 36.01243674 -28.20387802 36.01243674 -27 38 C-25.07690578 37.96044102 -25.07690578 37.96044102 -23 37 C-21.9349985 35.03384339 -20.93166826 33.03273074 -20 31 C-19.34 30.67 -18.68 30.34 -18 30 C-17.29289322 28.35008418 -16.63437344 26.6792238 -16 25 C-15.4225 23.989375 -14.845 22.97875 -14.25 21.9375 C-13.63125 20.4834375 -13.63125 20.4834375 -13 19 C-13.66226625 17.66447552 -14.32937687 16.33134776 -15 15 C-15.01171875 12.74609375 -15.01171875 12.74609375 -14.6875 10.4375 C-14.58824219 9.67308594 -14.48898438 8.90867188 -14.38671875 8.12109375 C-14 6 -14 6 -13 3 C-8.6188635 0.6805748 -5.03995949 -0.80181174 0 0 Z " fill="#414141" transform="translate(205,177)"/>
<path d="M0 0 C0 0.66 0 1.32 0 2 C0.66 2.33 1.32 2.66 2 3 C1.98839844 3.68707031 1.97679687 4.37414062 1.96484375 5.08203125 C1.95582031 5.98308594 1.94679687 6.88414062 1.9375 7.8125 C1.92589844 8.70582031 1.91429687 9.59914062 1.90234375 10.51953125 C1.88990033 13.13413791 1.88990033 13.13413791 3 16 C2.34 16 1.68 16 1 16 C1.24363281 17.85431641 1.24363281 17.85431641 1.4921875 19.74609375 C2.27443591 27.59483703 2.14895215 35.47077233 2.13037109 43.34985352 C2.12500601 46.05946429 2.13034378 48.76890985 2.13671875 51.47851562 C2.13605797 53.22656286 2.13477682 54.97460999 2.1328125 56.72265625 C2.13483673 57.51978531 2.13686096 58.31691437 2.13894653 59.13819885 C2.11696162 64.49377299 1.66662879 69.68517452 1 75 C0.34 75 -0.32 75 -1 75 C-1.185625 75.680625 -1.37125 76.36125 -1.5625 77.0625 C-3.52390751 81.07059361 -6.28354874 84.47532214 -10 87 C-12.2265625 86.6953125 -12.2265625 86.6953125 -14 86 C-13.86722656 85.42636719 -13.73445313 84.85273438 -13.59765625 84.26171875 C-12.08259563 76.97394542 -11.61847033 69.7940773 -11.34204102 62.37573242 C-11.09593929 56.19187858 -11.09593929 56.19187858 -10 54 C-10.66 53.67 -11.32 53.34 -12 53 C-12.02476651 47.67977231 -12.04289156 42.35957838 -12.05493164 37.03930664 C-12.05995238 35.23038142 -12.06677029 33.42146024 -12.07543945 31.61254883 C-12.08760402 29.00861614 -12.09325098 26.40473723 -12.09765625 23.80078125 C-12.10539818 22.59268547 -12.10539818 22.59268547 -12.11329651 21.36018372 C-12.11368947 17.40402691 -11.80780452 13.88541633 -11 10 C-11.33 9.34 -11.66 8.68 -12 8 C-18.80978408 16.65026626 -21.23530683 24.91432443 -20 36 C-19.11006171 38.16084427 -19.11006171 38.16084427 -18 40 C-17.32033324 41.66140763 -16.65061095 43.32700041 -16 45 C-18.125 45.75 -18.125 45.75 -21 46 C-25.21061388 43.93765851 -28.1681544 41.40857745 -30.296875 37.16015625 C-33.16629692 28.34465445 -30.63496866 20.26026976 -26.84765625 12.1484375 C-24.23757816 7.70082028 -21.23306094 4.86927143 -17 2 C-16.195625 1.360625 -15.39125 0.72125 -14.5625 0.0625 C-9.8335704 -1.89827569 -4.8023091 -1.6007697 0 0 Z " fill="#424242" transform="translate(128,153)"/>
<path d="M0 0 C2.03901261 2.03901261 1.18515017 6.27896011 1.2109375 9.0859375 C1.23900672 10.75521813 1.26767119 12.42448884 1.296875 14.09375 C1.33816015 16.73599974 1.37503054 19.37806437 1.40136719 22.02050781 C1.42893656 24.56354459 1.47480945 27.10572802 1.5234375 29.6484375 C1.52669037 30.43914642 1.52994324 31.22985535 1.53329468 32.04452515 C1.58330778 36.32871507 1.58330778 36.32871507 3.52978516 40.02197266 C4.01495605 40.34472168 4.50012695 40.6674707 5 41 C5.99 40.505 5.99 40.505 7 40 C8.485 39.505 8.485 39.505 10 39 C11.79506837 33.41534286 12.4873357 27.82818365 13 22 C12.34 21.67 11.68 21.34 11 21 C11.66 21 12.32 21 13 21 C12.82726562 20.18144531 12.65453125 19.36289063 12.4765625 18.51953125 C11.92809276 14.46894734 12.07939976 10.74830832 12.375 6.6875 C12.41882813 5.95982422 12.46265625 5.23214844 12.5078125 4.48242188 C12.86675044 -0.86675044 12.86675044 -0.86675044 14 -2 C16.03125 -1.9140625 16.03125 -1.9140625 18.5 -1.625 C19.3146875 -1.53476563 20.129375 -1.44453125 20.96875 -1.3515625 C23 -1 23 -1 24 0 C24.23527773 2.34987262 24.41386417 4.70556039 24.5625 7.0625 C24.64628906 8.35285156 24.73007812 9.64320313 24.81640625 10.97265625 C24.87699219 11.97167969 24.93757813 12.97070312 25 14 C26.32 13.67 27.64 13.34 29 13 C30.4783226 15.95664519 30.06032783 18.74229737 30 22 C29.34 22 28.68 22 28 22 C28.020625 23.216875 28.04125 24.43375 28.0625 25.6875 C28.06666901 28.07217254 27.9807602 30.09379403 27.5 32.4375 C27.02248411 34.88476893 26.99974507 36.89408849 27.0625 39.375 C27.12672984 43.63557948 26.3692226 46.97790862 25 51 C19.62007164 50.66009167 15.46726453 50.31442207 11 47 C10.484375 47.495 9.96875 47.99 9.4375 48.5 C6.15183066 50.52195036 3.79557779 50.27604202 0 50 C-3.06261493 48.97912836 -4.05779403 48.47189851 -6 46 C-6.6875 43.3125 -6.6875 43.3125 -7 41 C-8.485 41.495 -8.485 41.495 -10 42 C-10 41.34 -10 40.68 -10 40 C-10.99 40 -11.98 40 -13 40 C-12.78561279 39.12819092 -12.78561279 39.12819092 -12.56689453 38.23876953 C-11.02034087 31.37585325 -10.75896947 24.89038405 -10.875 17.875 C-10.88853516 16.2971875 -10.88853516 16.2971875 -10.90234375 14.6875 C-10.92564147 12.12475122 -10.95834888 9.56250488 -11 7 C-11.66 7 -12.32 7 -13 7 C-13 6.34 -13 5.68 -13 5 C-12.01 5 -11.02 5 -10 5 C-9.87625 4.030625 -9.7525 3.06125 -9.625 2.0625 C-9.41875 1.051875 -9.2125 0.04125 -9 -1 C-5.78158126 -2.60920937 -3.28446801 -1.0749168 0 0 Z " fill="#3A3A3A" transform="translate(420,180)"/>
<path d="M0 0 C3.74061897 0.34822579 7.31635888 1.22900535 11 2 C11 6.62 11 11.24 11 16 C15.62 16.66 20.24 17.32 25 18 C25.495 20.475 25.495 20.475 26 23 C24 26 24 26 22.171875 26.68359375 C18.44902702 27.2259511 14.75148222 27.05516886 11 27 C10.14387558 34.91003794 9.81731765 42.73356427 9.8125 50.6875 C9.79413086 52.30108398 9.79413086 52.30108398 9.77539062 53.94726562 C9.76669862 58.67861604 9.83404201 63.00629739 11.109375 67.58203125 C12 71 12 71 10.4375 74 C8 76 8 76 5.25 76.3125 C4.5075 76.209375 3.765 76.10625 3 76 C2.566875 75.0409375 2.566875 75.0409375 2.125 74.0625 C1.17176549 71.84793921 1.17176549 71.84793921 -1 71 C-1.73080266 69.02253397 -2.39421747 67.01927511 -3 65 C-3.33 64.01 -3.66 63.02 -4 62 C-5.485 62.495 -5.485 62.495 -7 63 C-6.68950274 61.56206608 -6.3765224 60.1246682 -6.0625 58.6875 C-5.88847656 57.88699219 -5.71445313 57.08648437 -5.53515625 56.26171875 C-5 54 -5 54 -4 51 C-3.85060226 49.08234406 -3.75189717 47.16053478 -3.68359375 45.23828125 C-3.64169922 44.12001953 -3.59980469 43.00175781 -3.55664062 41.84960938 C-3.51732422 40.68236328 -3.47800781 39.51511719 -3.4375 38.3125 C-3.39431641 37.13365234 -3.35113281 35.95480469 -3.30664062 34.74023438 C-3.20048906 31.82696374 -3.09973371 28.9134974 -3 26 C-6.96 25.67 -10.92 25.34 -15 25 C-15.36693548 18.51747312 -15.36693548 18.51747312 -13.78125 16.28125 C-11.47911524 14.6253285 -10.11781917 14.6905296 -7.3125 14.8125 C-6.10013672 14.85310547 -6.10013672 14.85310547 -4.86328125 14.89453125 C-4.24839844 14.92933594 -3.63351563 14.96414062 -3 15 C-2.95101562 14.08476562 -2.90203125 13.16953125 -2.8515625 12.2265625 C-2.77679688 11.03804687 -2.70203125 9.84953125 -2.625 8.625 C-2.52058594 6.84996094 -2.52058594 6.84996094 -2.4140625 5.0390625 C-2 2 -2 2 0 0 Z " fill="#393939" transform="translate(229,151)"/>
<path d="M0 0 C1.9375 1.6875 1.9375 1.6875 3 4 C2.74999247 8.50013556 0.62343169 12.83554479 -1 17 C-0.49210937 17.35191406 0.01578125 17.70382813 0.5390625 18.06640625 C6.67856603 22.46983294 11.76443097 27.07527749 15 34 C15.99 33.67 16.98 33.34 18 33 C18 33.99 18 34.98 18 36 C19.32 35.34 20.64 34.68 22 34 C21.35494404 37.48330216 20.01782732 40.09432866 18 43 C17.34 43 16.68 43 16 43 C15.79375 43.556875 15.5875 44.11375 15.375 44.6875 C12.94471007 48.7748058 9.48614354 51.50461882 5 53 C-2.9922882 53.61247435 -9.46411319 53.97972328 -16 49 C-15.6875 45.625 -15.6875 45.625 -15 42 C-12 40 -12 40 -10.0625 40.25 C-8 41 -8 41 -6.0625 42.125 C-3.37363338 43.26573129 -1.76141748 42.76706041 1 42 C1.96770885 37.92310145 1.96770885 37.92310145 1.3125 33.875 C-0.01749922 31.85940284 -0.01749922 31.85940284 -2.125 29.875 C-2.74375 29.25625 -3.3625 28.6375 -4 28 C-4 27.34 -4 26.68 -4 26 C-5.32 25.67 -6.64 25.34 -8 25 C-8.350625 25.763125 -8.70125 26.52625 -9.0625 27.3125 C-12.79828629 34.76636742 -17.4534517 41.78114282 -23 48 C-24.74271938 45.702779 -26.39911152 43.40133271 -28 41 C-27.67 40.01 -27.34 39.02 -27 38 C-26.071875 37.8453125 -26.071875 37.8453125 -25.125 37.6875 C-22.63626334 37.15226981 -22.63626334 37.15226981 -21.375 34 C-20.92125 33.01 -20.4675 32.02 -20 31 C-19.34 30.67 -18.68 30.34 -18 30 C-17.29289322 28.35008418 -16.63437344 26.6792238 -16 25 C-15.13375 23.4840625 -15.13375 23.4840625 -14.25 21.9375 C-13.8375 20.968125 -13.425 19.99875 -13 19 C-13.66226625 17.66447552 -14.32937687 16.33134776 -15 15 C-15.01171875 12.74609375 -15.01171875 12.74609375 -14.6875 10.4375 C-14.58824219 9.67308594 -14.48898438 8.90867188 -14.38671875 8.12109375 C-14 6 -14 6 -13 3 C-8.6188635 0.6805748 -5.03995949 -0.80181174 0 0 Z " fill="#444444" transform="translate(205,177)"/>
<path d="M0 0 C0 0.66 0 1.32 0 2 C0.66 2 1.32 2 2 2 C2.69202004 11.48599775 3.24577565 20.71131147 2.25390625 30.203125 C1.98639451 33.14986965 1.96062888 36.04279144 2 39 C3.32 39.33 4.64 39.66 6 40 C6 42.46474039 5.59765379 44.60938484 5 47 C3 49 3 49 1 50 C-0.54613014 49.91348369 -2.08909387 49.75997364 -3.625 49.5625 C-4.85089844 49.40974609 -4.85089844 49.40974609 -6.1015625 49.25390625 C-6.72804687 49.17011719 -7.35453125 49.08632812 -8 49 C-9.84730372 44.19701033 -10.43015194 39.88927532 -10.6875 34.8125 C-10.73455078 34.10158203 -10.78160156 33.39066406 -10.83007812 32.65820312 C-11.01479407 29.4393007 -11.02923284 27.08769852 -10 24 C-9.85596652 22.66636297 -9.75409577 21.32781954 -9.68359375 19.98828125 C-9.64169922 19.23095703 -9.59980469 18.47363281 -9.55664062 17.69335938 C-9.51732422 16.90767578 -9.47800781 16.12199219 -9.4375 15.3125 C-9.37272461 14.11657227 -9.37272461 14.11657227 -9.30664062 12.89648438 C-9.20072632 10.93118553 -9.09987449 8.96561504 -9 7 C-9.969375 6.71125 -10.93875 6.4225 -11.9375 6.125 C-15 5 -15 5 -16 3 C-16 1 -16 1 -14 -1 C-9.40765228 -2.87095648 -4.53343343 -1.51114448 0 0 Z " fill="#3C3C3C" transform="translate(175,180)"/>
<path d="M0 0 C0 13.86 0 27.72 0 42 C-2.97 42.495 -2.97 42.495 -6 43 C-6.66 43.66 -7.32 44.32 -8 45 C-8.66 43.68 -9.32 42.36 -10 41 C-11.485 41.495 -11.485 41.495 -13 42 C-13.66 40.68 -14.32 39.36 -15 38 C-14.34 37.01 -13.68 36.02 -13 35 C-12.71955865 31.86497685 -12.71955865 31.86497685 -12.8125 28.4375 C-12.81894531 27.28121094 -12.82539063 26.12492187 -12.83203125 24.93359375 C-12.80228824 22.06596198 -12.80228824 22.06596198 -14 20 C-13.34 20 -12.68 20 -12 20 C-12.33 19.46375 -12.66 18.9275 -13 18.375 C-14.23012738 15.45344746 -14.06693562 13.14597429 -14 10 C-14.33 9.01 -14.66 8.02 -15 7 C-15.66 6.67 -16.32 6.34 -17 6 C-16.67 4.68 -16.34 3.36 -16 2 C-15.01 2 -14.02 2 -13 2 C-12.67 1.01 -12.34 0.02 -12 -1 C-10 -2 -10 -2 0 0 Z " fill="#3B3B3B" transform="translate(291,180)"/>
<path d="M0 0 C6.0546875 -0.1953125 6.0546875 -0.1953125 8 0 C10 2 10 2 10.25 5.375 C10.17593262 8.82530534 9.65189875 12.05228291 9 15.4375 C7.57239303 23.26923118 7.83094809 31.0733436 8 39 C4.38026598 40.31626692 1.90432869 41 -2 41 C-3.9641471 35.24058859 -4.33512266 30.06287262 -4.3125 24 C-4.32861328 23.13632813 -4.34472656 22.27265625 -4.36132812 21.3828125 C-4.36553241 15.84997049 -3.75170758 11.84609859 -1 7 C-0.01 6.67 0.98 6.34 2 6 C1.67 5.38125 1.34 4.7625 1 4.125 C0 2 0 2 0 0 Z " fill="#393939" transform="translate(366,182)"/>
<path d="M0 0 C0.33 0.99 0.66 1.98 1 3 C0.01 4.485 0.01 4.485 -1 6 C-0.34 6.66 0.32 7.32 1 8 C0.73935946 11.12768651 -0.10671503 13.20489285 -1.5625 16 C-3.56824819 20.18590927 -3.44786951 22.65639147 -2 27 C1.465 26.505 1.465 26.505 5 26 C5 26.66 5 27.32 5 28 C5.99 27.67 6.98 27.34 8 27 C8 27.66 8 28.32 8 29 C8.99 29.33 9.98 29.66 11 30 C9.12310738 31.95849665 7.61352249 32.92102043 4.90625 33.26953125 C-1.43005653 33.38569687 -6.16218694 32.31947595 -11 28 C-12.81814751 22.54555746 -12.76961363 16.97900648 -10.6875 11.625 C-7.84413848 7.20199319 -5.21306311 4.21523237 -1 1 C-0.67 0.67 -0.34 0.34 0 0 Z " fill="#4E4E4E" transform="translate(318,234)"/>
<path d="M0 0 C1.9375 1.6875 1.9375 1.6875 3 4 C2.74454157 7.40611234 1.6483487 10.03297233 0 13 C-0.66 13 -1.32 13 -2 13 C-2.268125 13.969375 -2.53625 14.93875 -2.8125 15.9375 C-3.204375 16.948125 -3.59625 17.95875 -4 19 C-4.99 19.33 -5.98 19.66 -7 20 C-7.66 20.99 -8.32 21.98 -9 23 C-9.66 23.33 -10.32 23.66 -11 24 C-11.66 23.67 -12.32 23.34 -13 23 C-13.5625 21 -13.5625 21 -14 18 C-14.11601562 17.30003906 -14.23203125 16.60007813 -14.3515625 15.87890625 C-15.03968749 11.1340444 -15.4658981 7.31532167 -13 3 C-8.71407229 0.5273494 -4.94425491 -0.78658601 0 0 Z " fill="#3F3F3F" transform="translate(205,177)"/>
<path d="M0 0 C0.33 0.66 0.66 1.32 1 2 C3.64 2 6.28 2 9 2 C8.67 2.66 8.34 3.32 8 4 C5.36 3.67 2.72 3.34 0 3 C-0.2165625 4.3303125 -0.2165625 4.3303125 -0.4375 5.6875 C-0.91019978 8.47117646 -1.43070185 11.23483757 -2 14 C-2.66 14 -3.32 14 -4 14 C-4.20625 14.78375 -4.4125 15.5675 -4.625 16.375 C-7.06971001 22.82014458 -10.14660695 29.11040765 -16 33 C-16.33 31.68 -16.66 30.36 -17 29 C-16.34 29 -15.68 29 -15 29 C-15.33 28.01 -15.66 27.02 -16 26 C-15.01 25.67 -14.02 25.34 -13 25 C-13 24.01 -13 23.02 -13 22 C-13.66 22 -14.32 22 -15 22 C-14.71125 21.29875 -14.4225 20.5975 -14.125 19.875 C-12.94480522 16.96403037 -12.94480522 16.96403037 -12 13.75 C-11 11 -11 11 -9 10 C-9.33 8.68 -9.66 7.36 -10 6 C-3.71428571 0.42857143 -3.71428571 0.42857143 0 0 Z " fill="#565656" transform="translate(356,188)"/>
<path d="M0 0 C1.65 1.65 3.3 3.3 5 5 C0.7835987 16.55024825 0.7835987 16.55024825 -3 20 C-6.89535306 21.16031793 -10.15956347 21.37861824 -14 20 C-16.8125 17.625 -16.8125 17.625 -19 15 C-19 14.01 -19 13.02 -19 12 C-17.02 12 -15.04 12 -13 12 C-12.34 10.02 -11.68 8.04 -11 6 C-10.896875 6.639375 -10.79375 7.27875 -10.6875 7.9375 C-10.460625 8.618125 -10.23375 9.29875 -10 10 C-9.01 10.33 -8.02 10.66 -7 11 C-7.33 11.33 -7.66 11.66 -8 12 C-7.01 12 -6.02 12 -5 12 C-3.35 8.04 -1.7 4.08 0 0 Z " fill="#555555" transform="translate(497,209)"/>
<path d="M0 0 C0.66 0.33 1.32 0.66 2 1 C2.625 3.0625 2.625 3.0625 3 5 C4.32 5 5.64 5 7 5 C7 5.66 7 6.32 7 7 C7.66 7 8.32 7 9 7 C9 12.61 9 18.22 9 24 C8.34 23.67 7.68 23.34 7 23 C7 18.71 7 14.42 7 10 C5.576875 12.1346875 5.576875 12.1346875 4.125 14.3125 C1.5625 18.15625 1.5625 18.15625 -1 22 C-2.65 21.67 -4.3 21.34 -6 21 C-6 21.66 -6 22.32 -6 23 C-6.66 23 -7.32 23 -8 23 C-8.33 23.66 -8.66 24.32 -9 25 C-9 17.08 -9 9.16 -9 1 C-8.67 1 -8.34 1 -8 1 C-7.67 6.28 -7.34 11.56 -7 17 C-6.38125 15.576875 -5.7625 14.15375 -5.125 12.6875 C-3.90417811 9.87960965 -2.71017726 7.5652659 -1 5 C-0.61500109 3.34450469 -0.27206865 1.6777567 0 0 Z " fill="#646464" transform="translate(157,180)"/>
<path d="M0 0 C0.66 0.33 1.32 0.66 2 1 C1.67 1.66 1.34 2.32 1 3 C2.32 3.33 3.64 3.66 5 4 C3.74658665 9.64036008 1.55406083 13.91062313 -1.875 18.5625 C-2.55304688 19.49191406 -3.23109375 20.42132813 -3.9296875 21.37890625 C-5.82207865 23.77474485 -7.79227581 25.89622695 -10 28 C-10.433125 26.824375 -10.433125 26.824375 -10.875 25.625 C-11.84912254 22.90328368 -11.84912254 22.90328368 -14 21 C-13.505 19.515 -13.505 19.515 -13 18 C-12.38125 17.896875 -11.7625 17.79375 -11.125 17.6875 C-8.63626334 17.15226981 -8.63626334 17.15226981 -7.375 14 C-6.694375 12.515 -6.694375 12.515 -6 11 C-5.34 10.67 -4.68 10.34 -4 10 C-3.27095914 8.35965807 -2.61344757 6.68698082 -2 5 C-1.33333333 3.33333333 -0.66666667 1.66666667 0 0 Z " fill="#6B6B6B" transform="translate(191,197)"/>
<path d="M0 0 C0.66 0.99 1.32 1.98 2 3 C1.67 3.66 1.34 4.32 1 5 C1.66 5.33 2.32 5.66 3 6 C2.67 7.32 2.34 8.64 2 10 C1.67 9.34 1.34 8.68 1 8 C-2.25149768 12.27828642 -4.58832253 15.73829306 -6 21 C-6.8971875 20.4740625 -6.8971875 20.4740625 -7.8125 19.9375 C-10.10813214 18.66695302 -10.10813214 18.66695302 -13 20 C-13 19.34 -13 18.68 -13 18 C-13.66 18 -14.32 18 -15 18 C-13.63410689 11.30712375 -10.78010071 6.57561972 -5.05078125 2.671875 C-3.40038607 1.72114025 -1.70357291 0.85178645 0 0 Z " fill="#494949" transform="translate(115,153)"/>
<path d="M0 0 C0.66 0.33 1.32 0.66 2 1 C2 1.66 2 2.32 2 3 C4.97065509 2.65772428 4.97065509 2.65772428 8 2 C8.33 1.34 8.66 0.68 9 0 C9 0.66 9 1.32 9 2 C10.32 2.66 11.64 3.32 13 4 C7.89016018 10.69565217 7.89016018 10.69565217 3.6953125 11.37109375 C-3.27477373 11.55117197 -3.27477373 11.55117197 -7.125 8.625 C-9 6 -9 6 -9 4 C-3.375 2 -3.375 2 0 2 C0 1.34 0 0.68 0 0 Z " fill="#4F4F4F" transform="translate(374,219)"/>
<path d="M0 0 C2.88917749 0.47033122 5.7623726 0.94907984 8.625 1.5625 C11.25314214 2.12077495 11.25314214 2.12077495 15 2 C15 3.65 15 5.3 15 7 C14.34 6.34 13.68 5.68 13 5 C12.401875 5.61875 11.80375 6.2375 11.1875 6.875 C6.72898181 9.84734546 2.24283948 10.30217898 -3 11 C-3 10.34 -3 9.68 -3 9 C-3.99 9 -4.98 9 -6 9 C-7.6875 7 -7.6875 7 -9 5 C-8.01 4.67 -7.02 4.34 -6 4 C-6 4.66 -6 5.32 -6 6 C-2.47618313 3.45395403 -2.47618313 3.45395403 0 0 Z " fill="#5E5E5E" transform="translate(313,220)"/>
<path d="M0 0 C0.66 0.33 1.32 0.66 2 1 C2 1.99 2 2.98 2 4 C3.98 3.34 5.96 2.68 8 2 C9.5625 3.25 9.5625 3.25 11 5 C11 7 11 7 10 9 C7.15635157 11.34182812 5.22819517 11.97095698 1.5625 12.4375 C-2.59582111 11.92682899 -4.73062785 10.55170509 -8 8 C-7 6 -7 6 -4 4 C-3.01 4.33 -2.02 4.66 -1 5 C-0.67 3.35 -0.34 1.7 0 0 Z " fill="#565656" transform="translate(290,218)"/>
<path d="M0 0 C0.57492188 0.22042969 1.14984375 0.44085938 1.7421875 0.66796875 C1.4121875 2.64796875 1.0821875 4.62796875 0.7421875 6.66796875 C0.0821875 6.66796875 -0.5778125 6.66796875 -1.2578125 6.66796875 C-1.4434375 7.26609375 -1.6290625 7.86421875 -1.8203125 8.48046875 C-3.99925287 11.79624757 -6.55348517 12.47504978 -10.2578125 13.66796875 C-13.1953125 13.35546875 -13.1953125 13.35546875 -15.2578125 12.66796875 C-15.5878125 11.67796875 -15.9178125 10.68796875 -16.2578125 9.66796875 C-14.9378125 9.66796875 -13.6178125 9.66796875 -12.2578125 9.66796875 C-12.00773438 9.07628906 -11.75765625 8.48460937 -11.5 7.875 C-10.08868409 5.3674733 -8.66512258 4.09088566 -6.3828125 2.35546875 C-5.70476562 1.82308594 -5.02671875 1.29070312 -4.328125 0.7421875 C-2.2578125 -0.33203125 -2.2578125 -0.33203125 0 0 Z " fill="#555555" transform="translate(249.2578125,217.33203125)"/>
<path d="M0 0 C1.32 1.32 2.64 2.64 4 4 C4.33 3.34 4.66 2.68 5 2 C4.6196061 8.08630247 2.73569204 12.17835097 -1 17 C-3.3125 19 -3.3125 19 -5 20 C-5.33 18.68 -5.66 17.36 -6 16 C-5.34 16 -4.68 16 -4 16 C-4.33 15.01 -4.66 14.02 -5 13 C-4.01 12.67 -3.02 12.34 -2 12 C-2 11.01 -2 10.02 -2 9 C-2.66 9 -3.32 9 -4 9 C-2.80100302 5.9168649 -1.52299523 2.93720508 0 0 Z " fill="#4C4C4C" transform="translate(345,201)"/>
<path d="M0 0 C0.99 0.66 1.98 1.32 3 2 C4.32567199 2.68177416 5.65753688 3.35191436 7 4 C6.979375 4.78375 6.95875 5.5675 6.9375 6.375 C6.81315937 8.98114961 6.81315937 8.98114961 8 11 C7.34 11 6.68 11 6 11 C5.67 11.66 5.34 12.32 5 13 C2.84365964 13 1.07553648 12.5534764 -1 12 C-2.1875 8.8125 -2.1875 8.8125 -3 5 C-1.625 2.0625 -1.625 2.0625 0 0 Z " fill="#393939" transform="translate(348,178)"/>
<path d="M0 0 C0 0.66 0 1.32 0 2 C0.66 2 1.32 2 2 2 C1.52797514 6.24822374 -0.96655518 8.19989709 -4 11 C-4.28875 10.21625 -4.5775 9.4325 -4.875 8.625 C-5.84912254 5.90328368 -5.84912254 5.90328368 -8 4 C-7.67 3.01 -7.34 2.02 -7 1 C-4.53721199 -0.231394 -2.7204945 -0.07159196 0 0 Z " fill="#767676" transform="translate(185,214)"/>
<path d="M0 0 C0 4.03426882 -1.7445374 6.77682203 -4 10 C-6.25 11.9375 -6.25 11.9375 -8 13 C-8.33 11.68 -8.66 10.36 -9 9 C-8.34 9 -7.68 9 -7 9 C-7.33 8.01 -7.66 7.02 -8 6 C-7.01 5.67 -6.02 5.34 -5 5 C-5 4.34 -5 3.68 -5 3 C-2.5 1.375 -2.5 1.375 0 0 Z " fill="#6E6E6E" transform="translate(348,208)"/>
<path d="M0 0 C0.99 0.33 1.98 0.66 3 1 C2.50168276 4.68754757 1.89932357 6.60490662 -1 9 C-1.66 8.67 -2.32 8.34 -3 8 C-3 7.34 -3 6.68 -3 6 C-3.66 6 -4.32 6 -5 6 C-4.67 5.01 -4.34 4.02 -4 3 C-1.9375 2.3125 -1.9375 2.3125 0 2 C0 1.34 0 0.68 0 0 Z " fill="#626262" transform="translate(188,208)"/>
<path d="M0 0 C0.66 0.66 1.32 1.32 2 2 C2.99 1.34 3.98 0.68 5 0 C5 0.99 5 1.98 5 3 C6.32 2.34 7.64 1.68 9 1 C8.35455571 4.48539917 6.89865603 7.02819057 5 10 C4.34 9.67 3.68 9.34 3 9 C3 7.68 3 6.36 3 5 C2.01 5.33 1.02 5.66 0 6 C0 4.02 0 2.04 0 0 Z " fill="#828282" transform="translate(218,210)"/>
<path d="M0 0 C2.31 0.33 4.62 0.66 7 1 C7.33 1.99 7.66 2.98 8 4 C6.02 4.99 4.04 5.98 2 7 C0.4375 5.75 0.4375 5.75 -1 4 C-0.6875 1.8125 -0.6875 1.8125 0 0 Z " fill="#545454" transform="translate(350,175)"/>
<path d="M0 0 C0.96697501 3.86790003 0.979595 5.08162002 0.0625 8.75 C-0.13214844 9.54921875 -0.32679688 10.3484375 -0.52734375 11.171875 C-0.76130859 12.07679688 -0.76130859 12.07679688 -1 13 C-3.31 13.33 -5.62 13.66 -8 14 C-8 12.35 -8 10.7 -8 9 C-6.02 9 -4.04 9 -2 9 C-1.34 6.03 -0.68 3.06 0 0 Z " fill="#818181" transform="translate(468,213)"/>
<path d="M0 0 C0.875 1.875 0.875 1.875 1 4 C-0.4375 5.75 -0.4375 5.75 -2 7 C-2.99 6.67 -3.98 6.34 -5 6 C-5 5.01 -5 4.02 -5 3 C-5.99 2.34 -6.98 1.68 -8 1 C-3.375 -1.125 -3.375 -1.125 0 0 Z " fill="#666666" transform="translate(300,221)"/>
<path d="M0 0 C1.65 1.65 3.3 3.3 5 5 C4.34 6.65 3.68 8.3 3 10 C2.01 9.01 1.02 8.02 0 7 C-0.99 7.495 -0.99 7.495 -2 8 C-1.34 5.36 -0.68 2.72 0 0 Z " fill="#828282" transform="translate(497,209)"/>
<path d="M0 0 C3.45925163 1.2491742 6.14693203 2.67527795 9 5 C8.21625 5.309375 7.4325 5.61875 6.625 5.9375 C4.07669872 6.92875038 4.07669872 6.92875038 2 8 C1.34 5.36 0.68 2.72 0 0 Z " fill="#474747" transform="translate(313,181)"/>
<path d="M0 0 C0 0.99 0 1.98 0 3 C1.32 3.33 2.64 3.66 4 4 C-2.625 4.125 -2.625 4.125 -6 3 C-6 2.01 -6 1.02 -6 0 C-3 -1 -3 -1 0 0 Z " fill="#757575" transform="translate(423,226)"/>
<path d="M0 0 C1.32 1.32 2.64 2.64 4 4 C2.84826645 6.46800047 1.95216435 8.04783565 0 10 C-1.125 3.375 -1.125 3.375 0 0 Z " fill="#232323" transform="translate(98,177)"/>
<path d="M0 0 C1.5625 1.1875 1.5625 1.1875 3 3 C2.6875 5.6875 2.6875 5.6875 2 8 C0.68 7.67 -0.64 7.34 -2 7 C-1.34 4.69 -0.68 2.38 0 0 Z " fill="#6A6A6A" transform="translate(116,232)"/>
<path d="M0 0 C0.33 0.66 0.66 1.32 1 2 C3.01669827 3.13350534 3.01669827 3.13350534 5 4 C3.68 5.65 2.36 7.3 1 9 C0.34 8.67 -0.32 8.34 -1 8 C-0.67 6.68 -0.34 5.36 0 4 C-0.99 3.67 -1.98 3.34 -3 3 C-2.01 2.67 -1.02 2.34 0 2 C0 1.34 0 0.68 0 0 Z " fill="#848484" transform="translate(382,219)"/>
<path d="M0 0 C0.99 0.33 1.98 0.66 3 1 C3 2.98 3 4.96 3 7 C2.01 7.33 1.02 7.66 0 8 C-0.66 7.67 -1.32 7.34 -2 7 C-1.34 4.69 -0.68 2.38 0 0 Z " fill="#242424" transform="translate(194,193)"/>
<path d="M0 0 C0.66 0.66 1.32 1.32 2 2 C1.625 5.125 1.625 5.125 1 8 C-1 6.75 -1 6.75 -3 5 C-3 3.68 -3 2.36 -3 1 C-2.01 0.67 -1.02 0.34 0 0 Z " fill="#242424" transform="translate(448,193)"/>
<path d="M0 0 C1.65 0.33 3.3 0.66 5 1 C5.33 1.99 5.66 2.98 6 4 C5.01 4.99 4.02 5.98 3 7 C1.68 5.35 0.36 3.7 -1 2 C-0.67 1.34 -0.34 0.68 0 0 Z " fill="#5E5E5E" transform="translate(405,219)"/>
<path d="M0 0 C0.99 1.32 1.98 2.64 3 4 C2.34 4.66 1.68 5.32 1 6 C-1.93453261 5.63318342 -2.86437246 5.13562754 -5 3 C-4.360625 2.87625 -3.72125 2.7525 -3.0625 2.625 C-2.0415625 2.315625 -2.0415625 2.315625 -1 2 C-0.67 1.34 -0.34 0.68 0 0 Z " fill="#8B8B8B" transform="translate(109,193)"/>
<path d="M0 0 C2.31 0.66 4.62 1.32 7 2 C6.67 3.98 6.34 5.96 6 8 C5.01 7.67 4.02 7.34 3 7 C3.66 5.35 4.32 3.7 5 2 C3.35 1.67 1.7 1.34 0 1 C0 0.67 0 0.34 0 0 Z " fill="#838383" transform="translate(248,168)"/>
<path d="M0 0 C0.33 0.99 0.66 1.98 1 3 C-1.35438733 4.42944945 -2.48032433 5.08661261 -5.25 4.625 C-5.8275 4.41875 -6.405 4.2125 -7 4 C-6.67 3.01 -6.34 2.02 -6 1 C-5.01 1.33 -4.02 1.66 -3 2 C-2.01 1.34 -1.02 0.68 0 0 Z " fill="#222222" transform="translate(485,217)"/>
<path d="M0 0 C1.32 1.32 2.64 2.64 4 4 C3.34 4.66 2.68 5.32 2 6 C-0.125 5.625 -0.125 5.625 -2 5 C-1.125 1.125 -1.125 1.125 0 0 Z " fill="#242424" transform="translate(276,181)"/>
<path d="M0 0 C0.6875 1.8125 0.6875 1.8125 1 4 C-0.375 5.5625 -0.375 5.5625 -2 7 C-2.33 7.99 -2.66 8.98 -3 10 C-3.66 10 -4.32 10 -5 10 C-3.14285714 2.42857143 -3.14285714 2.42857143 0 0 Z " fill="#878787" transform="translate(105,161)"/>
<path d="M0 0 C0.66 0.33 1.32 0.66 2 1 C1.67 2.65 1.34 4.3 1 6 C-0.32 5.67 -1.64 5.34 -3 5 C-3 4.01 -3 3.02 -3 2 C-2.01 1.34 -1.02 0.68 0 0 Z " fill="#373737" transform="translate(497,215)"/>
<path d="M0 0 C0.33 1.32 0.66 2.64 1 4 C-0.32 4.99 -1.64 5.98 -3 7 C-3.66 5.68 -4.32 4.36 -5 3 C-2.25 0 -2.25 0 0 0 Z " fill="#242424" transform="translate(413,215)"/>
<path d="M0 0 C0.99 0.33 1.98 0.66 3 1 C3 1.99 3 2.98 3 4 C0.69 4.33 -1.62 4.66 -4 5 C-4 4.34 -4 3.68 -4 3 C-2.68 2.67 -1.36 2.34 0 2 C0 1.34 0 0.68 0 0 Z " fill="#373737" transform="translate(188,208)"/>
<path d="M0 0 C0.66 0.66 1.32 1.32 2 2 C0.68 3.32 -0.64 4.64 -2 6 C-2.66 5.34 -3.32 4.68 -4 4 C-2.68 2.68 -1.36 1.36 0 0 Z M-6 5 C-5.01 5.495 -5.01 5.495 -4 6 C-4.99 6.495 -4.99 6.495 -6 7 C-6 6.34 -6 5.68 -6 5 Z " fill="#242424" transform="translate(325,229)"/>
<path d="M0 0 C0.33 0 0.66 0 1 0 C1.05395478 1.62463842 1.09277195 3.24978541 1.125 4.875 C1.14820313 5.77992188 1.17140625 6.68484375 1.1953125 7.6171875 C1 10 1 10 -1 12 C-2.11658501 7.31034294 -1.80619523 4.46236469 0 0 Z " fill="#9D9D9D" transform="translate(252,198)"/>
<path d="M0 0 C1.32 0.66 2.64 1.32 4 2 C3.67 2.66 3.34 3.32 3 4 C2.01 4 1.02 4 0 4 C-0.33 4.99 -0.66 5.98 -1 7 C-1.99 6.67 -2.98 6.34 -4 6 C-3.34 6 -2.68 6 -2 6 C-1.7834375 5.071875 -1.7834375 5.071875 -1.5625 4.125 C-1 2 -1 2 0 0 Z " fill="#636363" transform="translate(304,185)"/>
<path d="M0 0 C1.98 0.495 1.98 0.495 4 1 C4 2.65 4 4.3 4 6 C0.125 4.25 0.125 4.25 -1 2 C-0.67 1.34 -0.34 0.68 0 0 Z " fill="#535353" transform="translate(444,204)"/>
<path d="M0 0 C2.875 -0.125 2.875 -0.125 6 0 C6.66 0.66 7.32 1.32 8 2 C7.34 2 6.68 2 6 2 C6 2.66 6 3.32 6 4 C5.01 4.33 4.02 4.66 3 5 C2.67 4.01 2.34 3.02 2 2 C1.34 1.34 0.68 0.68 0 0 Z " fill="#707070" transform="translate(139,178)"/>
<path d="M0 0 C0.99 0.33 1.98 0.66 3 1 C1.35 2.65 -0.3 4.3 -2 6 C-2.66 4.35 -3.32 2.7 -4 1 C-2.68 1.33 -1.36 1.66 0 2 C0 1.34 0 0.68 0 0 Z " fill="#646464" transform="translate(183,219)"/>
<path d="M0 0 C0.66 0.99 1.32 1.98 2 3 C1.67 3.66 1.34 4.32 1 5 C-1.0625 5.625 -1.0625 5.625 -3 6 C-3.33 5.01 -3.66 4.02 -4 3 C-3.01 2.67 -2.02 2.34 -1 2 C-0.67 1.34 -0.34 0.68 0 0 Z " fill="#232323" transform="translate(289,217)"/>
<path d="M0 0 C0.66 0 1.32 0 2 0 C1.67 0.99 1.34 1.98 1 3 C0.34 3 -0.32 3 -1 3 C-0.67 2.01 -0.34 1.02 0 0 Z " fill="#FFFFFF" transform="translate(187,220)"/>
<path d="M0 0 C1.485 0.99 1.485 0.99 3 2 C2.01 2.33 1.02 2.66 0 3 C0 2.01 0 1.02 0 0 Z " fill="#FFFFFF" transform="translate(190,215)"/>
<path d="M0 0 C0.33 0 0.66 0 1 0 C1 1.65 1 3.3 1 5 C0.67 5 0.34 5 0 5 C0 3.35 0 1.7 0 0 Z " fill="#FFFFFF" transform="translate(487,210)"/>
<path d="M0 0 C4 1 4 1 4 1 Z " fill="#FFFFFF" transform="translate(314,231)"/>
<path d="M0 0 C0.66 0 1.32 0 2 0 C1.67 0.66 1.34 1.32 1 2 C0.67 1.34 0.34 0.68 0 0 Z " fill="#FFFFFF" transform="translate(324,240)"/>
<path d="" fill="#FFFFFF" transform="translate(0,0)"/>
<path d="" fill="#FFFFFF" transform="translate(0,0)"/>
<path d="" fill="#FFFFFF" transform="translate(0,0)"/>
<path d="" fill="#FFFFFF" transform="translate(0,0)"/>
<path d="" fill="#FFFFFF" transform="translate(0,0)"/>
<path d="" fill="#FFFFFF" transform="translate(0,0)"/>
<path d="" fill="#FFFFFF" transform="translate(0,0)"/>
<path d="" fill="#FFFFFF" transform="translate(0,0)"/>
<path d="" fill="#FFFFFF" transform="translate(0,0)"/>
<path d="" fill="#FFFFFF" transform="translate(0,0)"/>
<path d="" fill="#FFFFFF" transform="translate(0,0)"/>
<path d="" fill="#FFFFFF" transform="translate(0,0)"/>
<path d="" fill="#FFFFFF" transform="translate(0,0)"/>
<path d="" fill="#FFFFFF" transform="translate(0,0)"/>
<path d="" fill="#FFFFFF" transform="translate(0,0)"/>
<path d="" fill="#FFFFFF" transform="translate(0,0)"/>
<path d="" fill="#FFFFFF" transform="translate(0,0)"/>
<path d="" fill="#FFFFFF" transform="translate(0,0)"/>
<path d="" fill="#FFFFFF" transform="translate(0,0)"/>
<path d="" fill="#FFFFFF" transform="translate(0,0)"/>
<path d="" fill="#FFFFFF" transform="translate(0,0)"/>
<path d="" fill="#FFFFFF" transform="translate(0,0)"/>
<path d="" fill="#FFFFFF" transform="translate(0,0)"/>
<path d="" fill="#FFFFFF" transform="translate(0,0)"/>
<path d="" fill="#FFFFFF" transform="translate(0,0)"/>
<path d="" fill="#FFFFFF" transform="translate(0,0)"/>
<path d="" fill="#FFFFFF" transform="translate(0,0)"/>
<path d="" fill="#FFFFFF" transform="translate(0,0)"/>
<path d="" fill="#FFFFFF" transform="translate(0,0)"/>
<path d="" fill="#FFFFFF" transform="translate(0,0)"/>
<path d="" fill="#FFFFFF" transform="translate(0,0)"/>
<path d="" fill="#FFFFFF" transform="translate(0,0)"/>
<path d="" fill="#FFFFFF" transform="translate(0,0)"/>
<path d="" fill="#FFFFFF" transform="translate(0,0)"/>
<path d="" fill="#FFFFFF" transform="translate(0,0)"/>
<path d="" fill="#FFFFFF" transform="translate(0,0)"/>
<path d="" fill="#FFFFFF" transform="translate(0,0)"/>
<path d="" fill="#FFFFFF" transform="translate(0,0)"/>
<path d="" fill="#FFFFFF" transform="translate(0,0)"/>
<path d="" fill="#FFFFFF" transform="translate(0,0)"/>
<path d="" fill="#FFFFFF" transform="translate(0,0)"/>
<path d="" fill="#FFFFFF" transform="translate(0,0)"/>
<path d="" fill="#FFFFFF" transform="translate(0,0)"/>
<path d="" fill="#FFFFFF" transform="translate(0,0)"/>
<path d="" fill="#FFFFFF" transform="translate(0,0)"/>
<path d="" fill="#FFFFFF" transform="translate(0,0)"/>
<path d="" fill="#FFFFFF" transform="translate(0,0)"/>
<path d="" fill="#FFFFFF" transform="translate(0,0)"/>
<path d="" fill="#FFFFFF" transform="translate(0,0)"/>
<path d="" fill="#FFFFFF" transform="translate(0,0)"/>
<path d="" fill="#FFFFFF" transform="translate(0,0)"/>
<path d="" fill="#FFFFFF" transform="translate(0,0)"/>
<path d="" fill="#FFFFFF" transform="translate(0,0)"/>
<path d="" fill="#FFFFFF" transform="translate(0,0)"/>
<path d="" fill="#FFFFFF" transform="translate(0,0)"/>
<path d="" fill="#FFFFFF" transform="translate(0,0)"/>
<path d="" fill="#FFFFFF" transform="translate(0,0)"/>
<path d="" fill="#FFFFFF" transform="translate(0,0)"/>
<path d="" fill="#FFFFFF" transform="translate(0,0)"/>
<path d="" fill="#FFFFFF" transform="translate(0,0)"/>
<path d="" fill="#FFFFFF" transform="translate(0,0)"/>
<path d="" fill="#FFFFFF" transform="translate(0,0)"/>
<path d="" fill="#FFFFFF" transform="translate(0,0)"/>
<path d="" fill="#FFFFFF" transform="translate(0,0)"/>
<path d="" fill="#FFFFFF" transform="translate(0,0)"/>
<path d="" fill="#FFFFFF" transform="translate(0,0)"/>
<path d="" fill="#FFFFFF" transform="translate(0,0)"/>
<path d="" fill="#FFFFFF" transform="translate(0,0)"/>
<path d="" fill="#FFFFFF" transform="translate(0,0)"/>
<path d="" fill="#FFFFFF" transform="translate(0,0)"/>
<path d="" fill="#FFFFFF" transform="translate(0,0)"/>
<path d="" fill="#FFFFFF" transform="translate(0,0)"/>
<path d="" fill="#FFFFFF" transform="translate(0,0)"/>
<path d="" fill="#FFFFFF" transform="translate(0,0)"/>
<path d="" fill="#FFFFFF" transform="translate(0,0)"/>
<path d="" fill="#FFFFFF" transform="translate(0,0)"/>
<path d="" fill="#FFFFFF" transform="translate(0,0)"/>
<path d="" fill="#FFFFFF" transform="translate(0,0)"/>
<path d="" fill="#FFFFFF" transform="translate(0,0)"/>
<path d="" fill="#FFFFFF" transform="translate(0,0)"/>
<path d="" fill="#FFFFFF" transform="translate(0,0)"/>
<path d="" fill="#FFFFFF" transform="translate(0,0)"/>
<path d="" fill="#FFFFFF" transform="translate(0,0)"/>
<path d="" fill="#FFFFFF" transform="translate(0,0)"/>
<path d="" fill="#FFFFFF" transform="translate(0,0)"/>
<path d="" fill="#FFFFFF" transform="translate(0,0)"/>
<path d="" fill="#FFFFFF" transform="translate(0,0)"/>
<path d="" fill="#FFFFFF" transform="translate(0,0)"/>
<path d="" fill="#FFFFFF" transform="translate(0,0)"/>
<path d="" fill="#FFFFFF" transform="translate(0,0)"/>
<path d="" fill="#FFFFFF" transform="translate(0,0)"/>
<path d="" fill="#FFFFFF" transform="translate(0,0)"/>
<path d="" fill="#FFFFFF" transform="translate(0,0)"/>
<path d="" fill="#FFFFFF" transform="translate(0,0)"/>
<path d="" fill="#FFFFFF" transform="translate(0,0)"/>
<path d="" fill="#FFFFFF" transform="translate(0,0)"/>
<path d="" fill="#FFFFFF" transform="translate(0,0)"/>
<path d="" fill="#FFFFFF" transform="translate(0,0)"/>
<path d="" fill="#FFFFFF" transform="translate(0,0)"/>
<path d="" fill="#FFFFFF" transform="translate(0,0)"/>
<path d="" fill="#FFFFFF" transform="translate(0,0)"/>
<path d="" fill="#FFFFFF" transform="translate(0,0)"/>
<path d="" fill="#FFFFFF" transform="translate(0,0)"/>
<path d="" fill="#FFFFFF" transform="translate(0,0)"/>
<path d="" fill="#FFFFFF" transform="translate(0,0)"/>
<path d="" fill="#FFFFFF" transform="translate(0,0)"/>
<path d="" fill="#FFFFFF" transform="translate(0,0)"/>
<path d="" fill="#FFFFFF" transform="translate(0,0)"/>
<path d="" fill="#FFFFFF" transform="translate(0,0)"/>
<path d="" fill="#FFFFFF" transform="translate(0,0)"/>
<path d="" fill="#FFFFFF" transform="translate(0,0)"/>
<path d="" fill="#FFFFFF" transform="translate(0,0)"/>
<path d="" fill="#FFFFFF" transform="translate(0,0)"/>
<path d="" fill="#FFFFFF" transform="translate(0,0)"/>
<path d="" fill="#FFFFFF" transform="translate(0,0)"/>
<path d="" fill="#FFFFFF" transform="translate(0,0)"/>
<path d="" fill="#FFFFFF" transform="translate(0,0)"/>
<path d="" fill="#FFFFFF" transform="translate(0,0)"/>
<path d="" fill="#FFFFFF" transform="translate(0,0)"/>
<path d="" fill="#FFFFFF" transform="translate(0,0)"/>
<path d="" fill="#FFFFFF" transform="translate(0,0)"/>
<path d="" fill="#FFFFFF" transform="translate(0,0)"/>
<path d="" fill="#FFFFFF" transform="translate(0,0)"/>
<path d="" fill="#FFFFFF" transform="translate(0,0)"/>
<path d="" fill="#FFFFFF" transform="translate(0,0)"/>
<path d="" fill="#FFFFFF" transform="translate(0,0)"/>
<path d="" fill="#FFFFFF" transform="translate(0,0)"/>
<path d="" fill="#FFFFFF" transform="translate(0,0)"/>
<path d="" fill="#FFFFFF" transform="translate(0,0)"/>
<path d="" fill="#FFFFFF" transform="translate(0,0)"/>
<path d="" fill="#FFFFFF" transform="translate(0,0)"/>
<path d="" fill="#FFFFFF" transform="translate(0,0)"/>
<path d="" fill="#FFFFFF" transform="translate(0,0)"/>
<path d="" fill="#FFFFFF" transform="translate(0,0)"/>
<path d="" fill="#FFFFFF" transform="translate(0,0)"/>
<path d="" fill="#FFFFFF" transform="translate(0,0)"/>
<path d="" fill="#FFFFFF" transform="translate(0,0)"/>
<path d="" fill="#FFFFFF" transform="translate(0,0)"/>
<path d="" fill="#FFFFFF" transform="translate(0,0)"/>
<path d="" fill="#FFFFFF" transform="translate(0,0)"/>
<path d="" fill="#FFFFFF" transform="translate(0,0)"/>
<path d="" fill="#FFFFFF" transform="translate(0,0)"/>
<path d="" fill="#FFFFFF" transform="translate(0,0)"/>
<path d="" fill="#FFFFFF" transform="translate(0,0)"/>
<path d="" fill="#FFFFFF" transform="translate(0,0)"/>
<path d="" fill="#FFFFFF" transform="translate(0,0)"/>
<path d="" fill="#FFFFFF" transform="translate(0,0)"/>
<path d="" fill="#FFFFFF" transform="translate(0,0)"/>
<path d="" fill="#FFFFFF" transform="translate(0,0)"/>
<path d="" fill="#FFFFFF" transform="translate(0,0)"/>
<path d="" fill="#FFFFFF" transform="translate(0,0)"/>
<path d="" fill="#FFFFFF" transform="translate(0,0)"/>
<path d="" fill="#FFFFFF" transform="translate(0,0)"/>
<path d="" fill="#FFFFFF" transform="translate(0,0)"/>
<path d="" fill="#FFFFFF" transform="translate(0,0)"/>
<path d="" fill="#FFFFFF" transform="translate(0,0)"/>
<path d="" fill="#FFFFFF" transform="translate(0,0)"/>
<path d="" fill="#FFFFFF" transform="translate(0,0)"/>
<path d="" fill="#FFFFFF" transform="translate(0,0)"/>
<path d="" fill="#FFFFFF" transform="translate(0,0)"/>
<path d="" fill="#FFFFFF" transform="translate(0,0)"/>
<path d="" fill="#FFFFFF" transform="translate(0,0)"/>
<path d="" fill="#FFFFFF" transform="translate(0,0)"/>
<path d="" fill="#FFFFFF" transform="translate(0,0)"/>
<path d="" fill="#FFFFFF" transform="translate(0,0)"/>
<path d="" fill="#FFFFFF" transform="translate(0,0)"/>
<path d="" fill="#FFFFFF" transform="translate(0,0)"/>
<path d="" fill="#FFFFFF" transform="translate(0,0)"/>
<path d="" fill="#FFFFFF" transform="translate(0,0)"/>
<path d="" fill="#FFFFFF" transform="translate(0,0)"/>
<path d="" fill="#FFFFFF" transform="translate(0,0)"/>
<path d="" fill="#FFFFFF" transform="translate(0,0)"/>
<path d="" fill="#FFFFFF" transform="translate(0,0)"/>
<path d="" fill="#FFFFFF" transform="translate(0,0)"/>
<path d="" fill="#FFFFFF" transform="translate(0,0)"/>
<path d="" fill="#FFFFFF" transform="translate(0,0)"/>
<path d="" fill="#FFFFFF" transform="translate(0,0)"/>
<path d="" fill="#FFFFFF" transform="translate(0,0)"/>
<path d="" fill="#FFFFFF" transform="translate(0,0)"/>
<path d="" fill="#FFFFFF" transform="translate(0,0)"/>
<path d="" fill="#FFFFFF" transform="translate(0,0)"/>
<path d="" fill="#FFFFFF" transform="translate(0,0)"/>
<path d="" fill="#FFFFFF" transform="translate(0,0)"/>
<path d="" fill="#FFFFFF" transform="translate(0,0)"/>
<path d="" fill="#FFFFFF" transform="translate(0,0)"/>
<path d="" fill="#FFFFFF" transform="translate(0,0)"/>
<path d="" fill="#FFFFFF" transform="translate(0,0)"/>
<path d="" fill="#FFFFFF" transform="translate(0,0)"/>
<path d="" fill="#FFFFFF" transform="translate(0,0)"/>
<path d="" fill="#FFFFFF" transform="translate(0,0)"/>
<path d="" fill="#FFFFFF" transform="translate(0,0)"/>
<path d="" fill="#FFFFFF" transform="translate(0,0)"/>
<path d="" fill="#FFFFFF" transform="translate(0,0)"/>
<path d="" fill="#FFFFFF" transform="translate(0,0)"/>
<path d="" fill="#FFFFFF" transform="translate(0,0)"/>
<path d="" fill="#FFFFFF" transform="translate(0,0)"/>
<path d="" fill="#FFFFFF" transform="translate(0,0)"/>
<path d="" fill="#FFFFFF" transform="translate(0,0)"/>
<path d="" fill="#FFFFFF" transform="translate(0,0)"/>
<path d="" fill="#FFFFFF" transform="translate(0,0)"/>
<path d="" fill="#FFFFFF" transform="translate(0,0)"/>
<path d="" fill="#FFFFFF" transform="translate(0,0)"/>
<path d="" fill="#FFFFFF" transform="translate(0,0)"/>
<path d="" fill="#FFFFFF" transform="translate(0,0)"/>
<path d="" fill="#FFFFFF" transform="translate(0,0)"/>
<path d="" fill="#FFFFFF" transform="translate(0,0)"/>
<path d="" fill="#FFFFFF" transform="translate(0,0)"/>
<path d="" fill="#FFFFFF" transform="translate(0,0)"/>
<path d="" fill="#FFFFFF" transform="translate(0,0)"/>
<path d="" fill="#FFFFFF" transform="translate(0,0)"/>
<path d="" fill="#FFFFFF" transform="translate(0,0)"/>
<path d="" fill="#FFFFFF" transform="translate(0,0)"/>
<path d="" fill="#FFFFFF" transform="translate(0,0)"/>
<path d="" fill="#FFFFFF" transform="translate(0,0)"/>
<path d="" fill="#FFFFFF" transform="translate(0,0)"/>
<path d="" fill="#FFFFFF" transform="translate(0,0)"/>
<path d="" fill="#FFFFFF" transform="translate(0,0)"/>
<path d="" fill="#FFFFFF" transform="translate(0,0)"/>
<path d="" fill="#FFFFFF" transform="translate(0,0)"/>
<path d="" fill="#FFFFFF" transform="translate(0,0)"/>
<path d="" fill="#FFFFFF" transform="translate(0,0)"/>
<path d="" fill="#FFFFFF" transform="translate(0,0)"/>
<path d="" fill="#FFFFFF" transform="translate(0,0)"/>
<path d="" fill="#FFFFFF" transform="translate(0,0)"/>
<path d="" fill="#FFFFFF" transform="translate(0,0)"/>
<path d="" fill="#FFFFFF" transform="translate(0,0)"/>
<path d="" fill="#FFFFFF" transform="translate(0,0)"/>
<path d="" fill="#FFFFFF" transform="translate(0,0)"/>
<path d="" fill="#FFFFFF" transform="translate(0,0)"/>
<path d="" fill="#FFFFFF" transform="translate(0,0)"/>
<path d="" fill="#FFFFFF" transform="translate(0,0)"/>
<path d="" fill="#FFFFFF" transform="translate(0,0)"/>
<path d="" fill="#FFFFFF" transform="translate(0,0)"/>
<path d="" fill="#FFFFFF" transform="translate(0,0)"/>
<path d="" fill="#FFFFFF" transform="translate(0,0)"/>
<path d="" fill="#FFFFFF" transform="translate(0,0)"/>
<path d="" fill="#FFFFFF" transform="translate(0,0)"/>
<path d="" fill="#FFFFFF" transform="translate(0,0)"/>
<path d="" fill="#FFFFFF" transform="translate(0,0)"/>
<path d="" fill="#FFFFFF" transform="translate(0,0)"/>
<path d="" fill="#FFFFFF" transform="translate(0,0)"/>
<path d="" fill="#FFFFFF" transform="translate(0,0)"/>
<path d="" fill="#FFFFFF" transform="translate(0,0)"/>
<path d="" fill="#FFFFFF" transform="translate(0,0)"/>
<path d="" fill="#FFFFFF" transform="translate(0,0)"/>
<path d="" fill="#FFFFFF" transform="translate(0,0)"/>
<path d="" fill="#FFFFFF" transform="translate(0,0)"/>
<path d="" fill="#FFFFFF" transform="translate(0,0)"/>
<path d="" fill="#FFFFFF" transform="translate(0,0)"/>
<path d="" fill="#FFFFFF" transform="translate(0,0)"/>
<path d="" fill="#FFFFFF" transform="translate(0,0)"/>
<path d="" fill="#FFFFFF" transform="translate(0,0)"/>
<path d="" fill="#FFFFFF" transform="translate(0,0)"/>
<path d="" fill="#FFFFFF" transform="translate(0,0)"/>
<path d="" fill="#FFFFFF" transform="translate(0,0)"/>
<path d="" fill="#FFFFFF" transform="translate(0,0)"/>
<path d="" fill="#FFFFFF" transform="translate(0,0)"/>
<path d="" fill="#FFFFFF" transform="translate(0,0)"/>
<path d="" fill="#FFFFFF" transform="translate(0,0)"/>
<path d="" fill="#FFFFFF" transform="translate(0,0)"/>
<path d="" fill="#FFFFFF" transform="translate(0,0)"/>
<path d="" fill="#FFFFFF" transform="translate(0,0)"/>
<path d="" fill="#FFFFFF" transform="translate(0,0)"/>
<path d="" fill="#FFFFFF" transform="translate(0,0)"/>
<path d="" fill="#FFFFFF" transform="translate(0,0)"/>
<path d="" fill="#FFFFFF" transform="translate(0,0)"/>
<path d="" fill="#FFFFFF" transform="translate(0,0)"/>
<path d="" fill="#FFFFFF" transform="translate(0,0)"/>
<path d="" fill="#FFFFFF" transform="translate(0,0)"/>
<path d="" fill="#FFFFFF" transform="translate(0,0)"/>
<path d="" fill="#FFFFFF" transform="translate(0,0)"/>
<path d="" fill="#FFFFFF" transform="translate(0,0)"/>
<path d="" fill="#FFFFFF" transform="translate(0,0)"/>
<path d="" fill="#FFFFFF" transform="translate(0,0)"/>
<path d="" fill="#FFFFFF" transform="translate(0,0)"/>
<path d="" fill="#FFFFFF" transform="translate(0,0)"/>
<path d="" fill="#FFFFFF" transform="translate(0,0)"/>
<path d="" fill="#FFFFFF" transform="translate(0,0)"/>
<path d="" fill="#FFFFFF" transform="translate(0,0)"/>
<path d="" fill="#FFFFFF" transform="translate(0,0)"/>
<path d="" fill="#FFFFFF" transform="translate(0,0)"/>
<path d="" fill="#FFFFFF" transform="translate(0,0)"/>
<path d="" fill="#FFFFFF" transform="translate(0,0)"/>
<path d="" fill="#FFFFFF" transform="translate(0,0)"/>
<path d="" fill="#FFFFFF" transform="translate(0,0)"/>
<path d="" fill="#FFFFFF" transform="translate(0,0)"/>
<path d="" fill="#FFFFFF" transform="translate(0,0)"/>
<path d="" fill="#FFFFFF" transform="translate(0,0)"/>
<path d="" fill="#FFFFFF" transform="translate(0,0)"/>
<path d="" fill="#FFFFFF" transform="translate(0,0)"/>
<path d="" fill="#FFFFFF" transform="translate(0,0)"/>
<path d="" fill="#FFFFFF" transform="translate(0,0)"/>
<path d="" fill="#FFFFFF" transform="translate(0,0)"/>
<path d="" fill="#FFFFFF" transform="translate(0,0)"/>
<path d="" fill="#FFFFFF" transform="translate(0,0)"/>
<path d="" fill="#FFFFFF" transform="translate(0,0)"/>
<path d="" fill="#FFFFFF" transform="translate(0,0)"/>
<path d="" fill="#FFFFFF" transform="translate(0,0)"/>
<path d="" fill="#FFFFFF" transform="translate(0,0)"/>
<path d="" fill="#FFFFFF" transform="translate(0,0)"/>
<path d="" fill="#FFFFFF" transform="translate(0,0)"/>
<path d="" fill="#FFFFFF" transform="translate(0,0)"/>
<path d="" fill="#FFFFFF" transform="translate(0,0)"/>
<path d="" fill="#FFFFFF" transform="translate(0,0)"/>
<path d="" fill="#FFFFFF" transform="translate(0,0)"/>
<path d="" fill="#FFFFFF" transform="translate(0,0)"/>
<path d="" fill="#FFFFFF" transform="translate(0,0)"/>
<path d="" fill="#FFFFFF" transform="translate(0,0)"/>
<path d="" fill="#FFFFFF" transform="translate(0,0)"/>
<path d="" fill="#FFFFFF" transform="translate(0,0)"/>
<path d="" fill="#FFFFFF" transform="translate(0,0)"/>
<path d="" fill="#FFFFFF" transform="translate(0,0)"/>
<path d="" fill="#FFFFFF" transform="translate(0,0)"/>
<path d="" fill="#FFFFFF" transform="translate(0,0)"/>
<path d="" fill="#FFFFFF" transform="translate(0,0)"/>
<path d="" fill="#FFFFFF" transform="translate(0,0)"/>
<path d="" fill="#FFFFFF" transform="translate(0,0)"/>
<path d="" fill="#FFFFFF" transform="translate(0,0)"/>
<path d="" fill="#FFFFFF" transform="translate(0,0)"/>
<path d="" fill="#FFFFFF" transform="translate(0,0)"/>
<path d="" fill="#FFFFFF" transform="translate(0,0)"/>
<path d="" fill="#FFFFFF" transform="translate(0,0)"/>
<path d="" fill="#FFFFFF" transform="translate(0,0)"/>
<path d="" fill="#FFFFFF" transform="translate(0,0)"/>
<path d="" fill="#FFFFFF" transform="translate(0,0)"/>
<path d="" fill="#FFFFFF" transform="translate(0,0)"/>
<path d="" fill="#FFFFFF" transform="translate(0,0)"/>
<path d="" fill="#FFFFFF" transform="translate(0,0)"/>
<path d="" fill="#FFFFFF" transform="translate(0,0)"/>
<path d="" fill="#FFFFFF" transform="translate(0,0)"/>
<path d="" fill="#FFFFFF" transform="translate(0,0)"/>
<path d="" fill="#FFFFFF" transform="translate(0,0)"/>
<path d="" fill="#FFFFFF" transform="translate(0,0)"/>
<path d="" fill="#FFFFFF" transform="translate(0,0)"/>
<path d="" fill="#FFFFFF" transform="translate(0,0)"/>
<path d="" fill="#FFFFFF" transform="translate(0,0)"/>
<path d="" fill="#FFFFFF" transform="translate(0,0)"/>
<path d="" fill="#FFFFFF" transform="translate(0,0)"/>
<path d="" fill="#FFFFFF" transform="translate(0,0)"/>
<path d="" fill="#FFFFFF" transform="translate(0,0)"/>
<path d="" fill="#FFFFFF" transform="translate(0,0)"/>
<path d="" fill="#FFFFFF" transform="translate(0,0)"/>
<path d="" fill="#FFFFFF" transform="translate(0,0)"/>
<path d="" fill="#FFFFFF" transform="translate(0,0)"/>
<path d="" fill="#FFFFFF" transform="translate(0,0)"/>
<path d="" fill="#FFFFFF" transform="translate(0,0)"/>
<path d="" fill="#FFFFFF" transform="translate(0,0)"/>
<path d="" fill="#FFFFFF" transform="translate(0,0)"/>
<path d="" fill="#FFFFFF" transform="translate(0,0)"/>
<path d="" fill="#FFFFFF" transform="translate(0,0)"/>
<path d="" fill="#FFFFFF" transform="translate(0,0)"/>
<path d="" fill="#FFFFFF" transform="translate(0,0)"/>
<path d="" fill="#FFFFFF" transform="translate(0,0)"/>
<path d="" fill="#FFFFFF" transform="translate(0,0)"/>
<path d="" fill="#FFFFFF" transform="translate(0,0)"/>
<path d="" fill="#FFFFFF" transform="translate(0,0)"/>
<path d="" fill="#FFFFFF" transform="translate(0,0)"/>
<path d="" fill="#FFFFFF" transform="translate(0,0)"/>
<path d="" fill="#FFFFFF" transform="translate(0,0)"/>
<path d="" fill="#FFFFFF" transform="translate(0,0)"/>
<path d="" fill="#FFFFFF" transform="translate(0,0)"/>
<path d="" fill="#FFFFFF" transform="translate(0,0)"/>
<path d="" fill="#FFFFFF" transform="translate(0,0)"/>
<path d="" fill="#FFFFFF" transform="translate(0,0)"/>
<path d="" fill="#FFFFFF" transform="translate(0,0)"/>
<path d="" fill="#FFFFFF" transform="translate(0,0)"/>
<path d="" fill="#FFFFFF" transform="translate(0,0)"/>
<path d="" fill="#FFFFFF" transform="translate(0,0)"/>
<path d="" fill="#FFFFFF" transform="translate(0,0)"/>
<path d="" fill="#FFFFFF" transform="translate(0,0)"/>
<path d="" fill="#FFFFFF" transform="translate(0,0)"/>
<path d="" fill="#FFFFFF" transform="translate(0,0)"/>
<path d="" fill="#FFFFFF" transform="translate(0,0)"/>
<path d="" fill="#FFFFFF" transform="translate(0,0)"/>
<path d="" fill="#FFFFFF" transform="translate(0,0)"/>
<path d="" fill="#FFFFFF" transform="translate(0,0)"/>
<path d="" fill="#FFFFFF" transform="translate(0,0)"/>
<path d="" fill="#FFFFFF" transform="translate(0,0)"/>
<path d="" fill="#FFFFFF" transform="translate(0,0)"/>
<path d="" fill="#FFFFFF" transform="translate(0,0)"/>
<path d="" fill="#FFFFFF" transform="translate(0,0)"/>
<path d="" fill="#FFFFFF" transform="translate(0,0)"/>
<path d="" fill="#FFFFFF" transform="translate(0,0)"/>
<path d="" fill="#FFFFFF" transform="translate(0,0)"/>
<path d="" fill="#FFFFFF" transform="translate(0,0)"/>
<path d="" fill="#FFFFFF" transform="translate(0,0)"/>
<path d="" fill="#FFFFFF" transform="translate(0,0)"/>
<path d="" fill="#FFFFFF" transform="translate(0,0)"/>
<path d="" fill="#FFFFFF" transform="translate(0,0)"/>
<path d="" fill="#FFFFFF" transform="translate(0,0)"/>
<path d="" fill="#FFFFFF" transform="translate(0,0)"/>
<path d="" fill="#FFFFFF" transform="translate(0,0)"/>
<path d="" fill="#FFFFFF" transform="translate(0,0)"/>
<path d="" fill="#FFFFFF" transform="translate(0,0)"/>
<path d="" fill="#FFFFFF" transform="translate(0,0)"/>
<path d="" fill="#FFFFFF" transform="translate(0,0)"/>
<path d="" fill="#FFFFFF" transform="translate(0,0)"/>
<path d="" fill="#FFFFFF" transform="translate(0,0)"/>
<path d="" fill="#FFFFFF" transform="translate(0,0)"/>
<path d="" fill="#FFFFFF" transform="translate(0,0)"/>
<path d="" fill="#FFFFFF" transform="translate(0,0)"/>
<path d="" fill="#FFFFFF" transform="translate(0,0)"/>
<path d="" fill="#FFFFFF" transform="translate(0,0)"/>
<path d="" fill="#FFFFFF" transform="translate(0,0)"/>
<path d="" fill="#FFFFFF" transform="translate(0,0)"/>
<path d="" fill="#FFFFFF" transform="translate(0,0)"/>
<path d="" fill="#FFFFFF" transform="translate(0,0)"/>
<path d="" fill="#FFFFFF" transform="translate(0,0)"/>
<path d="" fill="#FFFFFF" transform="translate(0,0)"/>
<path d="" fill="#FFFFFF" transform="translate(0,0)"/>
<path d="" fill="#FFFFFF" transform="translate(0,0)"/>
<path d="" fill="#FFFFFF" transform="translate(0,0)"/>
<path d="" fill="#FFFFFF" transform="translate(0,0)"/>
<path d="" fill="#FFFFFF" transform="translate(0,0)"/>
<path d="" fill="#FFFFFF" transform="translate(0,0)"/>
<path d="" fill="#FFFFFF" transform="translate(0,0)"/>
<path d="" fill="#FFFFFF" transform="translate(0,0)"/>
<path d="" fill="#FFFFFF" transform="translate(0,0)"/>
<path d="" fill="#FFFFFF" transform="translate(0,0)"/>
<path d="" fill="#FFFFFF" transform="translate(0,0)"/>
<path d="" fill="#FFFFFF" transform="translate(0,0)"/>
<path d="" fill="#FFFFFF" transform="translate(0,0)"/>
<path d="" fill="#FFFFFF" transform="translate(0,0)"/>
<path d="" fill="#FFFFFF" transform="translate(0,0)"/>
<path d="" fill="#FFFFFF" transform="translate(0,0)"/>
<path d="" fill="#FFFFFF" transform="translate(0,0)"/>
<path d="" fill="#FFFFFF" transform="translate(0,0)"/>
<path d="" fill="#FFFFFF" transform="translate(0,0)"/>
<path d="" fill="#FFFFFF" transform="translate(0,0)"/>
<path d="" fill="#FFFFFF" transform="translate(0,0)"/>
<path d="" fill="#FFFFFF" transform="translate(0,0)"/>
<path d="" fill="#FFFFFF" transform="translate(0,0)"/>
<path d="" fill="#FFFFFF" transform="translate(0,0)"/>
<path d="" fill="#FFFFFF" transform="translate(0,0)"/>
<path d="" fill="#FFFFFF" transform="translate(0,0)"/>
<path d="" fill="#FFFFFF" transform="translate(0,0)"/>
<path d="" fill="#FFFFFF" transform="translate(0,0)"/>
<path d="" fill="#FFFFFF" transform="translate(0,0)"/>
<path d="" fill="#FFFFFF" transform="translate(0,0)"/>
<path d="" fill="#FFFFFF" transform="translate(0,0)"/>
<path d="" fill="#FFFFFF" transform="translate(0,0)"/>
<path d="" fill="#FFFFFF" transform="translate(0,0)"/>
<path d="" fill="#FFFFFF" transform="translate(0,0)"/>
<path d="" fill="#FFFFFF" transform="translate(0,0)"/>
<path d="" fill="#FFFFFF" transform="translate(0,0)"/>
<path d="" fill="#FFFFFF" transform="translate(0,0)"/>
<path d="" fill="#FFFFFF" transform="translate(0,0)"/>
<path d="" fill="#FFFFFF" transform="translate(0,0)"/>
<path d="" fill="#FFFFFF" transform="translate(0,0)"/>
<path d="" fill="#FFFFFF" transform="translate(0,0)"/>
<path d="" fill="#FFFFFF" transform="translate(0,0)"/>
<path d="" fill="#FFFFFF" transform="translate(0,0)"/>
<path d="" fill="#FFFFFF" transform="translate(0,0)"/>
<path d="" fill="#FFFFFF" transform="translate(0,0)"/>
<path d="" fill="#FFFFFF" transform="translate(0,0)"/>
<path d="" fill="#FFFFFF" transform="translate(0,0)"/>
<path d="" fill="#FFFFFF" transform="translate(0,0)"/>
<path d="" fill="#FFFFFF" transform="translate(0,0)"/>
<path d="" fill="#FFFFFF" transform="translate(0,0)"/>
<path d="" fill="#FFFFFF" transform="translate(0,0)"/>
<path d="" fill="#FFFFFF" transform="translate(0,0)"/>
<path d="" fill="#FFFFFF" transform="translate(0,0)"/>
<path d="" fill="#FFFFFF" transform="translate(0,0)"/>
<path d="" fill="#FFFFFF" transform="translate(0,0)"/>
<path d="" fill="#FFFFFF" transform="translate(0,0)"/>
<path d="" fill="#FFFFFF" transform="translate(0,0)"/>
<path d="" fill="#FFFFFF" transform="translate(0,0)"/>
<path d="" fill="#FFFFFF" transform="translate(0,0)"/>
<path d="" fill="#FFFFFF" transform="translate(0,0)"/>
<path d="" fill="#FFFFFF" transform="translate(0,0)"/>
<path d="" fill="#FFFFFF" transform="translate(0,0)"/>
<path d="" fill="#FFFFFF" transform="translate(0,0)"/>
<path d="" fill="#FFFFFF" transform="translate(0,0)"/>
<path d="" fill="#FFFFFF" transform="translate(0,0)"/>
<path d="" fill="#FFFFFF" transform="translate(0,0)"/>
<path d="" fill="#FFFFFF" transform="translate(0,0)"/>
<path d="" fill="#FFFFFF" transform="translate(0,0)"/>
<path d="" fill="#FFFFFF" transform="translate(0,0)"/>
<path d="" fill="#FFFFFF" transform="translate(0,0)"/>
<path d="" fill="#FFFFFF" transform="translate(0,0)"/>
<path d="" fill="#FFFFFF" transform="translate(0,0)"/>
<path d="" fill="#FFFFFF" transform="translate(0,0)"/>
<path d="" fill="#FFFFFF" transform="translate(0,0)"/>
<path d="" fill="#FFFFFF" transform="translate(0,0)"/>
<path d="" fill="#FFFFFF" transform="translate(0,0)"/>
<path d="" fill="#FFFFFF" transform="translate(0,0)"/>
<path d="" fill="#FFFFFF" transform="translate(0,0)"/>
<path d="" fill="#FFFFFF" transform="translate(0,0)"/>
<path d="" fill="#FFFFFF" transform="translate(0,0)"/>
<path d="" fill="#FFFFFF" transform="translate(0,0)"/>
<path d="" fill="#FFFFFF" transform="translate(0,0)"/>
<path d="" fill="#FFFFFF" transform="translate(0,0)"/>
<path d="" fill="#FFFFFF" transform="translate(0,0)"/>
<path d="" fill="#FFFFFF" transform="translate(0,0)"/>
<path d="" fill="#FFFFFF" transform="translate(0,0)"/>
<path d="" fill="#FFFFFF" transform="translate(0,0)"/>
<path d="" fill="#FFFFFF" transform="translate(0,0)"/>
<path d="" fill="#FFFFFF" transform="translate(0,0)"/>
<path d="" fill="#FFFFFF" transform="translate(0,0)"/>
<path d="" fill="#FFFFFF" transform="translate(0,0)"/>
<path d="" fill="#FFFFFF" transform="translate(0,0)"/>
<path d="" fill="#FFFFFF" transform="translate(0,0)"/>
<path d="" fill="#FFFFFF" transform="translate(0,0)"/>
<path d="" fill="#FFFFFF" transform="translate(0,0)"/>
<path d="" fill="#FFFFFF" transform="translate(0,0)"/>
<path d="" fill="#FFFFFF" transform="translate(0,0)"/>
<path d="" fill="#FFFFFF" transform="translate(0,0)"/>
<path d="" fill="#FFFFFF" transform="translate(0,0)"/>
<path d="" fill="#FFFFFF" transform="translate(0,0)"/>
<path d="" fill="#FFFFFF" transform="translate(0,0)"/>
<path d="" fill="#FFFFFF" transform="translate(0,0)"/>
<path d="" fill="#FFFFFF" transform="translate(0,0)"/>
<path d="" fill="#FFFFFF" transform="translate(0,0)"/>
<path d="" fill="#FFFFFF" transform="translate(0,0)"/>
<path d="" fill="#FFFFFF" transform="translate(0,0)"/>
<path d="" fill="#FFFFFF" transform="translate(0,0)"/>
<path d="" fill="#FFFFFF" transform="translate(0,0)"/>
<path d="" fill="#FFFFFF" transform="translate(0,0)"/>
<path d="" fill="#FFFFFF" transform="translate(0,0)"/>
<path d="" fill="#FFFFFF" transform="translate(0,0)"/>
<path d="" fill="#FFFFFF" transform="translate(0,0)"/>
<path d="" fill="#FFFFFF" transform="translate(0,0)"/>
<path d="" fill="#FFFFFF" transform="translate(0,0)"/>
<path d="" fill="#FFFFFF" transform="translate(0,0)"/>
<path d="" fill="#FFFFFF" transform="translate(0,0)"/>
<path d="" fill="#FFFFFF" transform="translate(0,0)"/>
<path d="" fill="#FFFFFF" transform="translate(0,0)"/>
<path d="" fill="#FFFFFF" transform="translate(0,0)"/>
<path d="" fill="#FFFFFF" transform="translate(0,0)"/>
<path d="" fill="#FFFFFF" transform="translate(0,0)"/>
<path d="" fill="#FFFFFF" transform="translate(0,0)"/>
<path d="" fill="#FFFFFF" transform="translate(0,0)"/>
<path d="" fill="#FFFFFF" transform="translate(0,0)"/>
<path d="" fill="#FFFFFF" transform="translate(0,0)"/>
<path d="" fill="#FFFFFF" transform="translate(0,0)"/>
<path d="" fill="#FFFFFF" transform="translate(0,0)"/>
<path d="" fill="#FFFFFF" transform="translate(0,0)"/>
<path d="" fill="#FFFFFF" transform="translate(0,0)"/>
<path d="" fill="#FFFFFF" transform="translate(0,0)"/>
<path d="" fill="#FFFFFF" transform="translate(0,0)"/>
<path d="" fill="#FFFFFF" transform="translate(0,0)"/>
<path d="" fill="#FFFFFF" transform="translate(0,0)"/>
<path d="" fill="#FFFFFF" transform="translate(0,0)"/>
<path d="" fill="#FFFFFF" transform="translate(0,0)"/>
<path d="" fill="#FFFFFF" transform="translate(0,0)"/>
<path d="" fill="#FFFFFF" transform="translate(0,0)"/>
</svg>
